<?xml version="1.0" encoding="UTF-8" standalone="no"?>
<svg xmlns="http://www.w3.org/2000/svg" version="1.1" viewBox="0 0 576 1030">
   <polyline fill="none" points="190,415 290,415" stroke="rgb(0, 0, 1)" stroke-linecap="square" stroke-width="4.0"/>
   <polyline fill="none" points="310,265 490,265 490,345" stroke="rgb(0, 0, 1)" stroke-linecap="square" stroke-width="4.0"/>
   <polyline fill="none" points="200,75 290,75" stroke="rgb(0, 0, 1)" stroke-linecap="square" stroke-width="4.0"/>
   <polyline fill="none" points="200,515 290,515" stroke="rgb(0, 0, 1)" stroke-linecap="square" stroke-width="4.0"/>
   <polyline fill="none" points="200,795 290,795" stroke="rgb(0, 0, 1)" stroke-linecap="square" stroke-width="4.0"/>
   <polyline fill="none" points="200,675 290,675" stroke="rgb(0, 0, 1)" stroke-linecap="square" stroke-width="4.0"/>
   <polyline fill="none" points="260,905 290,905" stroke="rgb(0, 0, 1)" stroke-linecap="square" stroke-width="4.0"/>
   <polyline fill="none" points="70,95 120,95 120,175 120,275 160,275" stroke="rgb(0, 0, 1)" stroke-linecap="square" stroke-width="4.0"/>
   <polyline fill="none" points="100,605 160,605" stroke="rgb(0, 0, 1)" stroke-linecap="square" stroke-width="4.0"/>
   <polyline fill="none" points="310,75 490,75 500,75" stroke="rgb(0, 0, 1)" stroke-linecap="square" stroke-width="4.0"/>
   <polyline fill="none" points="70,25 310,25" stroke="rgb(0, 0, 1)" stroke-linecap="square" stroke-width="4.0"/>
   <polyline fill="none" points="190,465 290,465" stroke="rgb(0, 0, 1)" stroke-linecap="square" stroke-width="4.0"/>
   <polyline fill="none" points="160,925 120,925 120,815 120,695 120,525 160,525" stroke="rgb(0, 0, 1)" stroke-linecap="square" stroke-width="4.0"/>
   <polyline fill="none" points="200,165 290,165" stroke="rgb(0, 0, 1)" stroke-linecap="square" stroke-width="4.0"/>
   <polyline fill="none" points="200,905 220,905" stroke="rgb(40, 39, 255)" stroke-linecap="square" stroke-width="3.0"/>
   <polyline fill="none" points="120,475 120,525" stroke="rgb(0, 0, 1)" stroke-linecap="square" stroke-width="4.0"/>
   <polyline fill="none" points="150,745 160,745" stroke="rgb(0, 0, 1)" stroke-linecap="square" stroke-width="4.0"/>
   <polyline fill="none" points="150,625 160,625" stroke="rgb(0, 0, 1)" stroke-linecap="square" stroke-width="4.0"/>
   <polyline fill="none" points="200,915 210,915 210,965 220,965" stroke="rgb(40, 39, 255)" stroke-linecap="square" stroke-width="3.0"/>
   <polyline fill="none" points="160,355 120,355 120,425 120,475 160,475" stroke="rgb(0, 0, 1)" stroke-linecap="square" stroke-width="4.0"/>
   <polyline fill="none" points="100,405 100,335 160,335" stroke="rgb(0, 0, 1)" stroke-linecap="square" stroke-width="4.0"/>
   <polyline fill="none" points="160,155 100,155 100,255 160,255" stroke="rgb(0, 0, 1)" stroke-linecap="square" stroke-width="4.0"/>
   <polyline fill="none" points="100,455 160,455" stroke="rgb(0, 0, 1)" stroke-linecap="square" stroke-width="4.0"/>
   <polyline fill="none" points="310,165 490,165 490,75" stroke="rgb(0, 0, 1)" stroke-linecap="square" stroke-width="4.0"/>
   <polyline fill="none" points="310,565 490,565" stroke="rgb(0, 0, 1)" stroke-linecap="square" stroke-width="4.0"/>
   <polyline fill="none" points="100,255 100,335" stroke="rgb(0, 0, 1)" stroke-linecap="square" stroke-width="4.0"/>
   <polyline fill="none" points="120,275 120,355" stroke="rgb(0, 0, 1)" stroke-linecap="square" stroke-width="4.0"/>
   <polyline fill="none" points="120,175 160,175" stroke="rgb(0, 0, 1)" stroke-linecap="square" stroke-width="4.0"/>
   <polyline fill="none" points="200,735 290,735" stroke="rgb(0, 0, 1)" stroke-linecap="square" stroke-width="4.0"/>
   <polyline fill="none" points="200,855 290,855" stroke="rgb(0, 0, 1)" stroke-linecap="square" stroke-width="4.0"/>
   <polyline fill="none" points="200,615 290,615" stroke="rgb(0, 0, 1)" stroke-linecap="square" stroke-width="4.0"/>
   <polyline fill="none" points="260,965 290,965" stroke="rgb(0, 0, 1)" stroke-linecap="square" stroke-width="4.0"/>
   <polyline fill="none" points="490,165 490,265" stroke="rgb(0, 0, 1)" stroke-linecap="square" stroke-width="4.0"/>
   <polyline fill="none" points="310,675 490,675 490,735 490,795" stroke="rgb(0, 0, 1)" stroke-linecap="square" stroke-width="4.0"/>
   <polyline fill="none" points="310,515 490,515 490,565 490,615 490,675" stroke="rgb(0, 0, 1)" stroke-linecap="square" stroke-width="4.0"/>
   <polyline fill="none" points="310,795 490,795 490,855 490,905 310,905" stroke="rgb(0, 0, 1)" stroke-linecap="square" stroke-width="4.0"/>
   <polyline fill="none" points="310,345 490,345 490,415 490,465 310,465" stroke="rgb(0, 0, 1)" stroke-linecap="square" stroke-width="4.0"/>
   <polyline fill="none" points="160,405 100,405 100,455 100,505 100,565" stroke="rgb(0, 0, 1)" stroke-linecap="square" stroke-width="4.0"/>
   <polyline fill="none" points="160,565 100,565 100,605 100,665 100,725" stroke="rgb(0, 0, 1)" stroke-linecap="square" stroke-width="4.0"/>
   <polyline fill="none" points="160,725 100,725 100,785 100,855" stroke="rgb(0, 0, 1)" stroke-linecap="square" stroke-width="4.0"/>
   <polyline fill="none" points="100,665 160,665" stroke="rgb(0, 0, 1)" stroke-linecap="square" stroke-width="4.0"/>
   <polyline fill="none" points="100,505 160,505" stroke="rgb(0, 0, 1)" stroke-linecap="square" stroke-width="4.0"/>
   <polyline fill="none" points="100,785 160,785" stroke="rgb(0, 0, 1)" stroke-linecap="square" stroke-width="4.0"/>
   <polyline fill="none" points="160,855 100,855 100,905 160,905" stroke="rgb(0, 0, 1)" stroke-linecap="square" stroke-width="4.0"/>
   <polyline fill="none" points="310,735 490,735" stroke="rgb(0, 0, 1)" stroke-linecap="square" stroke-width="4.0"/>
   <polyline fill="none" points="310,855 490,855" stroke="rgb(0, 0, 1)" stroke-linecap="square" stroke-width="4.0"/>
   <polyline fill="none" points="310,1015 490,1015 490,965 310,965" stroke="rgb(0, 0, 1)" stroke-linecap="square" stroke-width="4.0"/>
   <polyline fill="none" points="310,415 490,415" stroke="rgb(0, 0, 1)" stroke-linecap="square" stroke-width="4.0"/>
   <polyline fill="none" points="310,615 490,615" stroke="rgb(0, 0, 1)" stroke-linecap="square" stroke-width="4.0"/>
   <polyline fill="none" points="190,565 290,565" stroke="rgb(0, 0, 1)" stroke-linecap="square" stroke-width="4.0"/>
   <polyline fill="none" points="160,65 100,65 100,155" stroke="rgb(0, 0, 1)" stroke-linecap="square" stroke-width="4.0"/>
   <polyline fill="none" points="120,425 160,425" stroke="rgb(0, 0, 1)" stroke-linecap="square" stroke-width="4.0"/>
   <polyline fill="none" points="70,65 100,65" stroke="rgb(0, 0, 1)" stroke-linecap="square" stroke-width="4.0"/>
   <polyline fill="none" points="200,265 290,265" stroke="rgb(0, 0, 1)" stroke-linecap="square" stroke-width="4.0"/>
   <polyline fill="none" points="200,345 290,345" stroke="rgb(0, 0, 1)" stroke-linecap="square" stroke-width="4.0"/>
   <polyline fill="none" points="100,905 100,1015 290,1015" stroke="rgb(0, 0, 1)" stroke-linecap="square" stroke-width="4.0"/>
   <polyline fill="none" points="150,805 160,805" stroke="rgb(0, 0, 1)" stroke-linecap="square" stroke-width="4.0"/>
   <polyline fill="none" points="150,685 160,685" stroke="rgb(0, 0, 1)" stroke-linecap="square" stroke-width="4.0"/>
   <polyline fill="none" points="120,815 130,815" stroke="rgb(0, 0, 1)" stroke-linecap="square" stroke-width="4.0"/>
   <polyline fill="none" points="120,695 130,695" stroke="rgb(0, 0, 1)" stroke-linecap="square" stroke-width="4.0"/>
   <polyline fill="none" points="120,95 150,95 150,85 160,85" stroke="rgb(0, 0, 1)" stroke-linecap="square" stroke-width="4.0"/>
   <polyline fill="none" points="490,905 490,965" stroke="rgb(0, 0, 1)" stroke-linecap="square" stroke-width="4.0"/>
   <polyline fill="none" points="490,465 490,515" stroke="rgb(0, 0, 1)" stroke-linecap="square" stroke-width="4.0"/>
   <ellipse cx="490.0" cy="905.0" fill="rgb(0, 0, 1)" rx="6.0" ry="6.0" stroke="none" stroke-width="4.0"/>
   <ellipse cx="120.0" cy="95.0" fill="rgb(0, 0, 1)" rx="6.0" ry="6.0" stroke="none" stroke-width="4.0"/>
   <ellipse cx="100.0" cy="725.0" fill="rgb(0, 0, 1)" rx="6.0" ry="6.0" stroke="none" stroke-width="4.0"/>
   <ellipse cx="490.0" cy="415.0" fill="rgb(0, 0, 1)" rx="6.0" ry="6.0" stroke="none" stroke-width="4.0"/>
   <ellipse cx="100.0" cy="255.0" fill="rgb(0, 0, 1)" rx="6.0" ry="6.0" stroke="none" stroke-width="4.0"/>
   <ellipse cx="490.0" cy="965.0" fill="rgb(0, 0, 1)" rx="6.0" ry="6.0" stroke="none" stroke-width="4.0"/>
   <ellipse cx="490.0" cy="465.0" fill="rgb(0, 0, 1)" rx="6.0" ry="6.0" stroke="none" stroke-width="4.0"/>
   <ellipse cx="100.0" cy="785.0" fill="rgb(0, 0, 1)" rx="6.0" ry="6.0" stroke="none" stroke-width="4.0"/>
   <ellipse cx="120.0" cy="175.0" fill="rgb(0, 0, 1)" rx="6.0" ry="6.0" stroke="none" stroke-width="4.0"/>
   <ellipse cx="120.0" cy="695.0" fill="rgb(0, 0, 1)" rx="6.0" ry="6.0" stroke="none" stroke-width="4.0"/>
   <ellipse cx="490.0" cy="515.0" fill="rgb(0, 0, 1)" rx="6.0" ry="6.0" stroke="none" stroke-width="4.0"/>
   <ellipse cx="100.0" cy="335.0" fill="rgb(0, 0, 1)" rx="6.0" ry="6.0" stroke="none" stroke-width="4.0"/>
   <ellipse cx="100.0" cy="855.0" fill="rgb(0, 0, 1)" rx="6.0" ry="6.0" stroke="none" stroke-width="4.0"/>
   <ellipse cx="490.0" cy="565.0" fill="rgb(0, 0, 1)" rx="6.0" ry="6.0" stroke="none" stroke-width="4.0"/>
   <ellipse cx="120.0" cy="275.0" fill="rgb(0, 0, 1)" rx="6.0" ry="6.0" stroke="none" stroke-width="4.0"/>
   <ellipse cx="490.0" cy="75.0" fill="rgb(0, 0, 1)" rx="6.0" ry="6.0" stroke="none" stroke-width="4.0"/>
   <ellipse cx="100.0" cy="905.0" fill="rgb(0, 0, 1)" rx="6.0" ry="6.0" stroke="none" stroke-width="4.0"/>
   <ellipse cx="100.0" cy="405.0" fill="rgb(0, 0, 1)" rx="6.0" ry="6.0" stroke="none" stroke-width="4.0"/>
   <ellipse cx="120.0" cy="815.0" fill="rgb(0, 0, 1)" rx="6.0" ry="6.0" stroke="none" stroke-width="4.0"/>
   <ellipse cx="490.0" cy="615.0" fill="rgb(0, 0, 1)" rx="6.0" ry="6.0" stroke="none" stroke-width="4.0"/>
   <ellipse cx="100.0" cy="455.0" fill="rgb(0, 0, 1)" rx="6.0" ry="6.0" stroke="none" stroke-width="4.0"/>
   <ellipse cx="120.0" cy="355.0" fill="rgb(0, 0, 1)" rx="6.0" ry="6.0" stroke="none" stroke-width="4.0"/>
   <ellipse cx="490.0" cy="675.0" fill="rgb(0, 0, 1)" rx="6.0" ry="6.0" stroke="none" stroke-width="4.0"/>
   <ellipse cx="490.0" cy="165.0" fill="rgb(0, 0, 1)" rx="6.0" ry="6.0" stroke="none" stroke-width="4.0"/>
   <ellipse cx="100.0" cy="505.0" fill="rgb(0, 0, 1)" rx="6.0" ry="6.0" stroke="none" stroke-width="4.0"/>
   <ellipse cx="120.0" cy="425.0" fill="rgb(0, 0, 1)" rx="6.0" ry="6.0" stroke="none" stroke-width="4.0"/>
   <ellipse cx="490.0" cy="735.0" fill="rgb(0, 0, 1)" rx="6.0" ry="6.0" stroke="none" stroke-width="4.0"/>
   <ellipse cx="100.0" cy="565.0" fill="rgb(0, 0, 1)" rx="6.0" ry="6.0" stroke="none" stroke-width="4.0"/>
   <ellipse cx="100.0" cy="65.0" fill="rgb(0, 0, 1)" rx="6.0" ry="6.0" stroke="none" stroke-width="4.0"/>
   <ellipse cx="490.0" cy="265.0" fill="rgb(0, 0, 1)" rx="6.0" ry="6.0" stroke="none" stroke-width="4.0"/>
   <ellipse cx="120.0" cy="475.0" fill="rgb(0, 0, 1)" rx="6.0" ry="6.0" stroke="none" stroke-width="4.0"/>
   <ellipse cx="490.0" cy="795.0" fill="rgb(0, 0, 1)" rx="6.0" ry="6.0" stroke="none" stroke-width="4.0"/>
   <ellipse cx="100.0" cy="605.0" fill="rgb(0, 0, 1)" rx="6.0" ry="6.0" stroke="none" stroke-width="4.0"/>
   <ellipse cx="120.0" cy="525.0" fill="rgb(0, 0, 1)" rx="6.0" ry="6.0" stroke="none" stroke-width="4.0"/>
   <ellipse cx="490.0" cy="855.0" fill="rgb(0, 0, 1)" rx="6.0" ry="6.0" stroke="none" stroke-width="4.0"/>
   <ellipse cx="490.0" cy="345.0" fill="rgb(0, 0, 1)" rx="6.0" ry="6.0" stroke="none" stroke-width="4.0"/>
   <ellipse cx="100.0" cy="665.0" fill="rgb(0, 0, 1)" rx="6.0" ry="6.0" stroke="none" stroke-width="4.0"/>
   <ellipse cx="100.0" cy="155.0" fill="rgb(0, 0, 1)" rx="6.0" ry="6.0" stroke="none" stroke-width="4.0"/>
   <polyline fill="none" points="32,17 69,17" stroke="rgb(0, 0, 0)" stroke-linecap="square" stroke-width="2.0"/>
   <polyline fill="none" points="70,17 70,34" stroke="rgb(0, 0, 0)" stroke-linecap="square" stroke-width="2.0"/>
   <polyline fill="none" points="70,35 33,35" stroke="rgb(0, 0, 0)" stroke-linecap="square" stroke-width="2.0"/>
   <polyline fill="none" points="32,35 32,18" stroke="rgb(0, 0, 0)" stroke-linecap="square" stroke-width="2.0"/>
   <text fill="rgb(0, 0, 0)" font-family="Monospaced" font-size="12" x="62.0" y="32.0">0</text>
   <text fill="rgb(0, 0, 0)" font-family="Monospaced" font-size="12" x="52.0" y="32.0">0</text>
   <text fill="rgb(0, 0, 0)" font-family="Monospaced" font-size="12" x="42.0" y="32.0">0</text>
   <text fill="rgb(0, 0, 0)" font-family="Monospaced" font-size="12" x="32.0" y="32.0">0</text>
   <text fill="rgb(0, 0, 255)" font-family="Monospaced" font-size="16" font-weight="bold" x="5.0" y="34.0">OP</text>
   <ellipse cx="70.0" cy="25.0" fill="rgb(0, 0, 1)" rx="2.0" ry="2.0" stroke="none" stroke-width="2.0"/>
   <polyline fill="none" points="32,57 69,57" stroke="rgb(0, 0, 0)" stroke-linecap="square" stroke-width="2.0"/>
   <polyline fill="none" points="70,57 70,74" stroke="rgb(0, 0, 0)" stroke-linecap="square" stroke-width="2.0"/>
   <polyline fill="none" points="70,75 33,75" stroke="rgb(0, 0, 0)" stroke-linecap="square" stroke-width="2.0"/>
   <polyline fill="none" points="32,75 32,58" stroke="rgb(0, 0, 0)" stroke-linecap="square" stroke-width="2.0"/>
   <text fill="rgb(0, 0, 0)" font-family="Monospaced" font-size="12" x="36.0" y="70.0">0000</text>
   <text fill="rgb(0, 0, 255)" font-family="Monospaced" font-size="16" font-weight="bold" x="17.0" y="74.0">A</text>
   <ellipse cx="70.0" cy="65.0" fill="rgb(0, 0, 1)" rx="2.0" ry="2.0" stroke="none" stroke-width="2.0"/>
   <polyline fill="none" points="32,87 69,87" stroke="rgb(0, 0, 0)" stroke-linecap="square" stroke-width="2.0"/>
   <polyline fill="none" points="70,87 70,104" stroke="rgb(0, 0, 0)" stroke-linecap="square" stroke-width="2.0"/>
   <polyline fill="none" points="70,105 33,105" stroke="rgb(0, 0, 0)" stroke-linecap="square" stroke-width="2.0"/>
   <polyline fill="none" points="32,105 32,88" stroke="rgb(0, 0, 0)" stroke-linecap="square" stroke-width="2.0"/>
   <text fill="rgb(0, 0, 0)" font-family="Monospaced" font-size="12" x="36.0" y="100.0">0000</text>
   <text fill="rgb(0, 0, 255)" font-family="Monospaced" font-size="16" font-weight="bold" x="17.0" y="104.0">B</text>
   <ellipse cx="70.0" cy="95.0" fill="rgb(0, 0, 1)" rx="2.0" ry="2.0" stroke="none" stroke-width="2.0"/>
   <polyline fill="none" points="150,805 136,805" stroke="rgb(0, 0, 1)" stroke-linecap="square" stroke-width="3.0"/>
   <polyline fill="none" points="136,806 136,809 131,814" stroke="rgb(0, 0, 1)" stroke-linecap="square" stroke-width="5.0"/>
   <text fill="rgb(0, 0, 0)" font-family="SansSerif" font-size="7" x="139.0" y="813.0">3-0</text>
   <ellipse cx="130.0" cy="815.0" fill="rgb(0, 0, 1)" rx="2.0" ry="2.0" stroke="none" stroke-width="5.0"/>
   <ellipse cx="150.0" cy="805.0" fill="rgb(0, 0, 1)" rx="2.0" ry="2.0" stroke="none" stroke-width="5.0"/>
   <polyline fill="none" points="150,685 136,685" stroke="rgb(0, 0, 1)" stroke-linecap="square" stroke-width="3.0"/>
   <polyline fill="none" points="136,686 136,689 131,694" stroke="rgb(0, 0, 1)" stroke-linecap="square" stroke-width="5.0"/>
   <text fill="rgb(0, 0, 0)" font-family="SansSerif" font-size="7" x="139.0" y="693.0">3-0</text>
   <ellipse cx="130.0" cy="695.0" fill="rgb(0, 0, 1)" rx="2.0" ry="2.0" stroke="none" stroke-width="5.0"/>
   <ellipse cx="150.0" cy="685.0" fill="rgb(0, 0, 1)" rx="2.0" ry="2.0" stroke="none" stroke-width="5.0"/>
   <rect fill="rgb(230, 230, 230)" height="16" stroke="none" stroke-linecap="square" stroke-width="1.0" width="14" x="136" y="737"/>
   <text fill="rgb(0, 0, 0)" font-family="Monospaced" font-size="12" x="140.0" y="750.0">1</text>
   <ellipse cx="150.0" cy="745.0" fill="rgb(0, 0, 1)" rx="2.0" ry="2.0" stroke="none" stroke-width="1.0"/>
   <rect fill="rgb(230, 230, 230)" height="16" stroke="none" stroke-linecap="square" stroke-width="1.0" width="14" x="136" y="617"/>
   <text fill="rgb(0, 0, 0)" font-family="Monospaced" font-size="12" x="140.0" y="630.0">1</text>
   <ellipse cx="150.0" cy="625.0" fill="rgb(0, 0, 1)" rx="2.0" ry="2.0" stroke="none" stroke-width="1.0"/>
   <polyline fill="none" points="220,885 259,885" stroke="rgb(0, 0, 0)" stroke-linecap="square" stroke-width="2.0"/>
   <polyline fill="none" points="260,885 260,924" stroke="rgb(0, 0, 0)" stroke-linecap="square" stroke-width="2.0"/>
   <polyline fill="none" points="260,925 221,925" stroke="rgb(0, 0, 0)" stroke-linecap="square" stroke-width="2.0"/>
   <polyline fill="none" points="220,925 220,886" stroke="rgb(0, 0, 0)" stroke-linecap="square" stroke-width="2.0"/>
   <text fill="rgb(0, 0, 0)" font-family="SansSerif" font-size="12" x="237.0" y="901.0">0</text>
   <text fill="rgb(0, 0, 0)" font-family="SansSerif" font-size="12" x="221.0" y="921.0">extend</text>
   <ellipse cx="260.0" cy="905.0" fill="rgb(0, 0, 1)" rx="2.0" ry="2.0" stroke="none" stroke-width="1.0"/>
   <text fill="rgb(0, 0, 0)" font-family="SansSerif" font-size="12" x="243.0" y="912.0">16</text>
   <ellipse cx="220.0" cy="905.0" fill="rgb(40, 39, 255)" rx="2.0" ry="2.0" stroke="none" stroke-width="1.0"/>
   <text fill="rgb(0, 0, 0)" font-family="SansSerif" font-size="12" x="223.0" y="912.0">1</text>
   <polyline fill="none" points="220,945 259,945" stroke="rgb(0, 0, 0)" stroke-linecap="square" stroke-width="2.0"/>
   <polyline fill="none" points="260,945 260,984" stroke="rgb(0, 0, 0)" stroke-linecap="square" stroke-width="2.0"/>
   <polyline fill="none" points="260,985 221,985" stroke="rgb(0, 0, 0)" stroke-linecap="square" stroke-width="2.0"/>
   <polyline fill="none" points="220,985 220,946" stroke="rgb(0, 0, 0)" stroke-linecap="square" stroke-width="2.0"/>
   <text fill="rgb(0, 0, 0)" font-family="SansSerif" font-size="12" x="237.0" y="961.0">0</text>
   <text fill="rgb(0, 0, 0)" font-family="SansSerif" font-size="12" x="221.0" y="981.0">extend</text>
   <ellipse cx="260.0" cy="965.0" fill="rgb(0, 0, 1)" rx="2.0" ry="2.0" stroke="none" stroke-width="1.0"/>
   <text fill="rgb(0, 0, 0)" font-family="SansSerif" font-size="12" x="243.0" y="972.0">16</text>
   <ellipse cx="220.0" cy="965.0" fill="rgb(40, 39, 255)" rx="2.0" ry="2.0" stroke="none" stroke-width="1.0"/>
   <text fill="rgb(0, 0, 0)" font-family="SansSerif" font-size="12" x="223.0" y="972.0">1</text>
   <rect fill="none" height="18" rx="3.0" ry="3.0" stroke="rgb(0, 0, 0)" stroke-linecap="square" stroke-width="2.0" width="38" x="502" y="67"/>
   <text fill="rgb(0, 0, 0)" font-family="Monospaced" font-size="12" x="506.0" y="80.0">UUUU</text>
   <text fill="rgb(0, 0, 255)" font-family="Monospaced" font-size="16" font-weight="bold" x="542.0" y="84.0">RES</text>
   <ellipse cx="500.0" cy="75.0" fill="rgb(0, 0, 1)" rx="2.0" ry="2.0" stroke="none" stroke-width="2.0"/>
   <polyline fill="none" points="160,400 189,400" stroke="rgb(0, 0, 0)" stroke-linecap="square" stroke-width="2.0"/>
   <polyline fill="none" points="190,400 190,429" stroke="rgb(0, 0, 0)" stroke-linecap="square" stroke-width="2.0"/>
   <polyline fill="none" points="190,430 161,430" stroke="rgb(0, 0, 0)" stroke-linecap="square" stroke-width="2.0"/>
   <polyline fill="none" points="160,430 160,401" stroke="rgb(0, 0, 0)" stroke-linecap="square" stroke-width="2.0"/>
   <text fill="rgb(0, 0, 0)" font-family="SansSerif" font-size="12" x="170.0" y="415.0">&amp;</text>
   <ellipse cx="190.0" cy="415.0" fill="rgb(0, 0, 1)" rx="2.0" ry="2.0" stroke="none" stroke-width="2.0"/>
   <ellipse cx="160.0" cy="405.0" fill="rgb(0, 0, 1)" rx="2.0" ry="2.0" stroke="none" stroke-width="2.0"/>
   <ellipse cx="160.0" cy="425.0" fill="rgb(0, 0, 1)" rx="2.0" ry="2.0" stroke="none" stroke-width="2.0"/>
   <polyline fill="none" points="160,450 189,450" stroke="rgb(0, 0, 0)" stroke-linecap="square" stroke-width="2.0"/>
   <polyline fill="none" points="190,450 190,479" stroke="rgb(0, 0, 0)" stroke-linecap="square" stroke-width="2.0"/>
   <polyline fill="none" points="190,480 161,480" stroke="rgb(0, 0, 0)" stroke-linecap="square" stroke-width="2.0"/>
   <polyline fill="none" points="160,480 160,451" stroke="rgb(0, 0, 0)" stroke-linecap="square" stroke-width="2.0"/>
   <text fill="rgb(0, 0, 0)" font-family="SansSerif" font-size="12" x="166.0" y="465.0">≥1</text>
   <ellipse cx="190.0" cy="465.0" fill="rgb(0, 0, 1)" rx="2.0" ry="2.0" stroke="none" stroke-width="2.0"/>
   <ellipse cx="160.0" cy="455.0" fill="rgb(0, 0, 1)" rx="2.0" ry="2.0" stroke="none" stroke-width="2.0"/>
   <ellipse cx="160.0" cy="475.0" fill="rgb(0, 0, 1)" rx="2.0" ry="2.0" stroke="none" stroke-width="2.0"/>
   <polyline fill="none" points="160,556 179,556" stroke="rgb(0, 0, 0)" stroke-linecap="square" stroke-width="2.0"/>
   <polyline fill="none" points="180,556 180,573" stroke="rgb(0, 0, 0)" stroke-linecap="square" stroke-width="2.0"/>
   <polyline fill="none" points="180,574 161,574" stroke="rgb(0, 0, 0)" stroke-linecap="square" stroke-width="2.0"/>
   <polyline fill="none" points="160,574 160,557" stroke="rgb(0, 0, 0)" stroke-linecap="square" stroke-width="2.0"/>
   <text fill="rgb(0, 0, 0)" font-family="SansSerif" font-size="12" x="167.0" y="572.0">1</text>
   <ellipse cx="184.0" cy="564.0" fill="none" rx="4.5" ry="4.5" stroke="rgb(0, 0, 0)" stroke-width="2.0"/>
   <ellipse cx="190.0" cy="565.0" fill="rgb(0, 0, 1)" rx="2.0" ry="2.0" stroke="none" stroke-width="1.0"/>
   <ellipse cx="160.0" cy="565.0" fill="rgb(0, 0, 1)" rx="2.0" ry="2.0" stroke="none" stroke-width="1.0"/>
   <polyline fill="none" points="160,500 199,500" stroke="rgb(0, 0, 0)" stroke-linecap="square" stroke-width="2.0"/>
   <polyline fill="none" points="200,500 200,529" stroke="rgb(0, 0, 0)" stroke-linecap="square" stroke-width="2.0"/>
   <polyline fill="none" points="200,530 161,530" stroke="rgb(0, 0, 0)" stroke-linecap="square" stroke-width="2.0"/>
   <polyline fill="none" points="160,530 160,501" stroke="rgb(0, 0, 0)" stroke-linecap="square" stroke-width="2.0"/>
   <text fill="rgb(0, 0, 0)" font-family="SansSerif" font-size="12" x="173.0" y="515.0">=1</text>
   <ellipse cx="200.0" cy="515.0" fill="rgb(0, 0, 1)" rx="2.0" ry="2.0" stroke="none" stroke-width="2.0"/>
   <ellipse cx="160.0" cy="505.0" fill="rgb(0, 0, 1)" rx="2.0" ry="2.0" stroke="none" stroke-width="2.0"/>
   <ellipse cx="160.0" cy="525.0" fill="rgb(0, 0, 1)" rx="2.0" ry="2.0" stroke="none" stroke-width="2.0"/>
   <polyline fill="none" points="410,45 410,715 300,715 300,725 300,730" stroke="rgb(40, 39, 255)" stroke-linecap="square" stroke-width="3.0"/>
   <polygon fill="none" points="310,735 291,728 291,742" stroke="rgb(0, 0, 0)" stroke-linecap="square" stroke-width="2.0"/>
   <ellipse cx="310.0" cy="735.0" fill="rgb(0, 0, 1)" rx="2.0" ry="2.0" stroke="none" stroke-width="2.0"/>
   <ellipse cx="290.0" cy="735.0" fill="rgb(0, 0, 1)" rx="2.0" ry="2.0" stroke="none" stroke-width="2.0"/>
   <polyline fill="none" points="420,45 420,775 300,775 300,785 300,790" stroke="rgb(40, 39, 255)" stroke-linecap="square" stroke-width="3.0"/>
   <polygon fill="none" points="310,795 291,788 291,802" stroke="rgb(0, 0, 0)" stroke-linecap="square" stroke-width="2.0"/>
   <ellipse cx="310.0" cy="795.0" fill="rgb(0, 0, 1)" rx="2.0" ry="2.0" stroke="none" stroke-width="2.0"/>
   <ellipse cx="290.0" cy="795.0" fill="rgb(0, 0, 1)" rx="2.0" ry="2.0" stroke="none" stroke-width="2.0"/>
   <polyline fill="none" points="430,45 430,835 300,835 300,845 300,850" stroke="rgb(40, 39, 255)" stroke-linecap="square" stroke-width="3.0"/>
   <polygon fill="none" points="310,855 291,848 291,862" stroke="rgb(0, 0, 0)" stroke-linecap="square" stroke-width="2.0"/>
   <ellipse cx="310.0" cy="855.0" fill="rgb(0, 0, 1)" rx="2.0" ry="2.0" stroke="none" stroke-width="2.0"/>
   <ellipse cx="290.0" cy="855.0" fill="rgb(0, 0, 1)" rx="2.0" ry="2.0" stroke="none" stroke-width="2.0"/>
   <polyline fill="none" points="440,45 440,885 300,885 300,895 300,900" stroke="rgb(40, 39, 255)" stroke-linecap="square" stroke-width="3.0"/>
   <polygon fill="none" points="310,905 291,898 291,912" stroke="rgb(0, 0, 0)" stroke-linecap="square" stroke-width="2.0"/>
   <ellipse cx="310.0" cy="905.0" fill="rgb(0, 0, 1)" rx="2.0" ry="2.0" stroke="none" stroke-width="2.0"/>
   <ellipse cx="290.0" cy="905.0" fill="rgb(0, 0, 1)" rx="2.0" ry="2.0" stroke="none" stroke-width="2.0"/>
   <polyline fill="none" points="450,45 450,945 300,945 300,955 300,960" stroke="rgb(40, 39, 255)" stroke-linecap="square" stroke-width="3.0"/>
   <polygon fill="none" points="310,965 291,958 291,972" stroke="rgb(0, 0, 0)" stroke-linecap="square" stroke-width="2.0"/>
   <ellipse cx="310.0" cy="965.0" fill="rgb(0, 0, 1)" rx="2.0" ry="2.0" stroke="none" stroke-width="2.0"/>
   <ellipse cx="290.0" cy="965.0" fill="rgb(0, 0, 1)" rx="2.0" ry="2.0" stroke="none" stroke-width="2.0"/>
   <polyline fill="none" points="460,45 460,995 300,995 300,1005 300,1010" stroke="rgb(40, 39, 255)" stroke-linecap="square" stroke-width="3.0"/>
   <polygon fill="none" points="310,1015 291,1008 291,1022" stroke="rgb(0, 0, 0)" stroke-linecap="square" stroke-width="2.0"/>
   <ellipse cx="310.0" cy="1015.0" fill="rgb(0, 0, 1)" rx="2.0" ry="2.0" stroke="none" stroke-width="2.0"/>
   <ellipse cx="290.0" cy="1015.0" fill="rgb(0, 0, 1)" rx="2.0" ry="2.0" stroke="none" stroke-width="2.0"/>
   <polyline fill="none" points="310,45 310,55 300,55 300,65 300,70" stroke="rgb(40, 39, 255)" stroke-linecap="square" stroke-width="3.0"/>
   <polygon fill="none" points="310,75 291,68 291,82" stroke="rgb(0, 0, 0)" stroke-linecap="square" stroke-width="2.0"/>
   <ellipse cx="310.0" cy="75.0" fill="rgb(0, 0, 1)" rx="2.0" ry="2.0" stroke="none" stroke-width="2.0"/>
   <ellipse cx="290.0" cy="75.0" fill="rgb(0, 0, 1)" rx="2.0" ry="2.0" stroke="none" stroke-width="2.0"/>
   <polyline fill="none" points="320,45 320,145 300,145 300,155 300,160" stroke="rgb(40, 39, 255)" stroke-linecap="square" stroke-width="3.0"/>
   <polygon fill="none" points="310,165 291,158 291,172" stroke="rgb(0, 0, 0)" stroke-linecap="square" stroke-width="2.0"/>
   <ellipse cx="310.0" cy="165.0" fill="rgb(0, 0, 1)" rx="2.0" ry="2.0" stroke="none" stroke-width="2.0"/>
   <ellipse cx="290.0" cy="165.0" fill="rgb(0, 0, 1)" rx="2.0" ry="2.0" stroke="none" stroke-width="2.0"/>
   <polyline fill="none" points="330,45 330,245 300,245 300,255 300,260" stroke="rgb(40, 39, 255)" stroke-linecap="square" stroke-width="3.0"/>
   <polygon fill="none" points="310,265 291,258 291,272" stroke="rgb(0, 0, 0)" stroke-linecap="square" stroke-width="2.0"/>
   <ellipse cx="310.0" cy="265.0" fill="rgb(0, 0, 1)" rx="2.0" ry="2.0" stroke="none" stroke-width="2.0"/>
   <ellipse cx="290.0" cy="265.0" fill="rgb(0, 0, 1)" rx="2.0" ry="2.0" stroke="none" stroke-width="2.0"/>
   <polyline fill="none" points="340,45 340,325 300,325 300,335 300,340" stroke="rgb(40, 39, 255)" stroke-linecap="square" stroke-width="3.0"/>
   <polygon fill="none" points="310,345 291,338 291,352" stroke="rgb(0, 0, 0)" stroke-linecap="square" stroke-width="2.0"/>
   <ellipse cx="310.0" cy="345.0" fill="rgb(0, 0, 1)" rx="2.0" ry="2.0" stroke="none" stroke-width="2.0"/>
   <ellipse cx="290.0" cy="345.0" fill="rgb(0, 0, 1)" rx="2.0" ry="2.0" stroke="none" stroke-width="2.0"/>
   <polyline fill="none" points="350,45 350,395 300,395 300,405 300,410" stroke="rgb(40, 39, 255)" stroke-linecap="square" stroke-width="3.0"/>
   <polygon fill="none" points="310,415 291,408 291,422" stroke="rgb(0, 0, 0)" stroke-linecap="square" stroke-width="2.0"/>
   <ellipse cx="310.0" cy="415.0" fill="rgb(0, 0, 1)" rx="2.0" ry="2.0" stroke="none" stroke-width="2.0"/>
   <ellipse cx="290.0" cy="415.0" fill="rgb(0, 0, 1)" rx="2.0" ry="2.0" stroke="none" stroke-width="2.0"/>
   <polyline fill="none" points="360,45 360,445 300,445 300,455 300,460" stroke="rgb(40, 39, 255)" stroke-linecap="square" stroke-width="3.0"/>
   <polygon fill="none" points="310,465 291,458 291,472" stroke="rgb(0, 0, 0)" stroke-linecap="square" stroke-width="2.0"/>
   <ellipse cx="310.0" cy="465.0" fill="rgb(0, 0, 1)" rx="2.0" ry="2.0" stroke="none" stroke-width="2.0"/>
   <ellipse cx="290.0" cy="465.0" fill="rgb(0, 0, 1)" rx="2.0" ry="2.0" stroke="none" stroke-width="2.0"/>
   <polyline fill="none" points="370,45 370,495 300,495 300,505 300,510" stroke="rgb(40, 39, 255)" stroke-linecap="square" stroke-width="3.0"/>
   <polygon fill="none" points="310,515 291,508 291,522" stroke="rgb(0, 0, 0)" stroke-linecap="square" stroke-width="2.0"/>
   <ellipse cx="310.0" cy="515.0" fill="rgb(0, 0, 1)" rx="2.0" ry="2.0" stroke="none" stroke-width="2.0"/>
   <ellipse cx="290.0" cy="515.0" fill="rgb(0, 0, 1)" rx="2.0" ry="2.0" stroke="none" stroke-width="2.0"/>
   <polyline fill="none" points="380,45 380,545 300,545 300,555 300,560" stroke="rgb(40, 39, 255)" stroke-linecap="square" stroke-width="3.0"/>
   <polygon fill="none" points="310,565 291,558 291,572" stroke="rgb(0, 0, 0)" stroke-linecap="square" stroke-width="2.0"/>
   <ellipse cx="310.0" cy="565.0" fill="rgb(0, 0, 1)" rx="2.0" ry="2.0" stroke="none" stroke-width="2.0"/>
   <ellipse cx="290.0" cy="565.0" fill="rgb(0, 0, 1)" rx="2.0" ry="2.0" stroke="none" stroke-width="2.0"/>
   <polyline fill="none" points="390,45 390,595 300,595 300,605 300,610" stroke="rgb(40, 39, 255)" stroke-linecap="square" stroke-width="3.0"/>
   <polygon fill="none" points="310,615 291,608 291,622" stroke="rgb(0, 0, 0)" stroke-linecap="square" stroke-width="2.0"/>
   <ellipse cx="310.0" cy="615.0" fill="rgb(0, 0, 1)" rx="2.0" ry="2.0" stroke="none" stroke-width="2.0"/>
   <ellipse cx="290.0" cy="615.0" fill="rgb(0, 0, 1)" rx="2.0" ry="2.0" stroke="none" stroke-width="2.0"/>
   <polyline fill="none" points="400,45 400,655 300,655 300,665 300,670" stroke="rgb(40, 39, 255)" stroke-linecap="square" stroke-width="3.0"/>
   <polygon fill="none" points="310,675 291,668 291,682" stroke="rgb(0, 0, 0)" stroke-linecap="square" stroke-width="2.0"/>
   <ellipse cx="310.0" cy="675.0" fill="rgb(0, 0, 1)" rx="2.0" ry="2.0" stroke="none" stroke-width="2.0"/>
   <ellipse cx="290.0" cy="675.0" fill="rgb(0, 0, 1)" rx="2.0" ry="2.0" stroke="none" stroke-width="2.0"/>
   <ellipse cx="315.0" cy="25.0" fill="rgb(192, 192, 192)" rx="3.0" ry="3.0" stroke="none" stroke-width="1.0"/>
   <text fill="rgb(128, 128, 128)" font-family="SansSerif" font-size="12" x="307.0" y="42.0">0</text>
   <polygon fill="none" points="320,5 460,5 480,45 300,45" stroke="rgb(0, 0, 0)" stroke-linecap="square" stroke-width="2.0"/>
   <text fill="rgb(0, 0, 0)" font-family="SansSerif" font-size="12" x="376.0" y="32.0">Decd</text>
   <ellipse cx="310.0" cy="45.0" fill="rgb(40, 39, 255)" rx="2.0" ry="2.0" stroke="none" stroke-width="2.0"/>
   <ellipse cx="320.0" cy="45.0" fill="rgb(40, 39, 255)" rx="2.0" ry="2.0" stroke="none" stroke-width="2.0"/>
   <ellipse cx="330.0" cy="45.0" fill="rgb(40, 39, 255)" rx="2.0" ry="2.0" stroke="none" stroke-width="2.0"/>
   <ellipse cx="340.0" cy="45.0" fill="rgb(40, 39, 255)" rx="2.0" ry="2.0" stroke="none" stroke-width="2.0"/>
   <ellipse cx="350.0" cy="45.0" fill="rgb(40, 39, 255)" rx="2.0" ry="2.0" stroke="none" stroke-width="2.0"/>
   <ellipse cx="360.0" cy="45.0" fill="rgb(40, 39, 255)" rx="2.0" ry="2.0" stroke="none" stroke-width="2.0"/>
   <ellipse cx="370.0" cy="45.0" fill="rgb(40, 39, 255)" rx="2.0" ry="2.0" stroke="none" stroke-width="2.0"/>
   <ellipse cx="380.0" cy="45.0" fill="rgb(40, 39, 255)" rx="2.0" ry="2.0" stroke="none" stroke-width="2.0"/>
   <ellipse cx="390.0" cy="45.0" fill="rgb(40, 39, 255)" rx="2.0" ry="2.0" stroke="none" stroke-width="2.0"/>
   <ellipse cx="400.0" cy="45.0" fill="rgb(40, 39, 255)" rx="2.0" ry="2.0" stroke="none" stroke-width="2.0"/>
   <ellipse cx="410.0" cy="45.0" fill="rgb(40, 39, 255)" rx="2.0" ry="2.0" stroke="none" stroke-width="2.0"/>
   <ellipse cx="420.0" cy="45.0" fill="rgb(40, 39, 255)" rx="2.0" ry="2.0" stroke="none" stroke-width="2.0"/>
   <ellipse cx="430.0" cy="45.0" fill="rgb(40, 39, 255)" rx="2.0" ry="2.0" stroke="none" stroke-width="2.0"/>
   <ellipse cx="440.0" cy="45.0" fill="rgb(40, 39, 255)" rx="2.0" ry="2.0" stroke="none" stroke-width="2.0"/>
   <ellipse cx="450.0" cy="45.0" fill="rgb(40, 39, 255)" rx="2.0" ry="2.0" stroke="none" stroke-width="2.0"/>
   <ellipse cx="460.0" cy="45.0" fill="rgb(40, 39, 255)" rx="2.0" ry="2.0" stroke="none" stroke-width="2.0"/>
   <ellipse cx="310.0" cy="25.0" fill="rgb(0, 0, 1)" rx="2.0" ry="2.0" stroke="none" stroke-width="2.0"/>
   <polyline fill="none" points="160,715 199,715" stroke="rgb(0, 0, 0)" stroke-linecap="square" stroke-width="2.0"/>
   <polyline fill="none" points="200,715 200,754" stroke="rgb(0, 0, 0)" stroke-linecap="square" stroke-width="2.0"/>
   <polyline fill="none" points="200,755 161,755" stroke="rgb(0, 0, 0)" stroke-linecap="square" stroke-width="2.0"/>
   <polyline fill="none" points="160,755 160,716" stroke="rgb(0, 0, 0)" stroke-linecap="square" stroke-width="2.0"/>
   <ellipse cx="160.0" cy="725.0" fill="rgb(0, 0, 1)" rx="2.0" ry="2.0" stroke="none" stroke-width="1.0"/>
   <ellipse cx="160.0" cy="745.0" fill="rgb(0, 0, 1)" rx="2.0" ry="2.0" stroke="none" stroke-width="1.0"/>
   <ellipse cx="200.0" cy="735.0" fill="rgb(0, 0, 1)" rx="2.0" ry="2.0" stroke="none" stroke-width="1.0"/>
   <rect fill="rgb(0, 0, 0)" height="3" stroke="none" stroke-linecap="square" stroke-width="1.0" width="8" x="185" y="734"/>
   <polygon fill="rgb(0, 0, 0)" points="191,731 195,735 191,739" stroke="none" stroke-linecap="square" stroke-width="1.0"/>
   <polyline fill="none" points="160,775 199,775" stroke="rgb(0, 0, 0)" stroke-linecap="square" stroke-width="2.0"/>
   <polyline fill="none" points="200,775 200,814" stroke="rgb(0, 0, 0)" stroke-linecap="square" stroke-width="2.0"/>
   <polyline fill="none" points="200,815 161,815" stroke="rgb(0, 0, 0)" stroke-linecap="square" stroke-width="2.0"/>
   <polyline fill="none" points="160,815 160,776" stroke="rgb(0, 0, 0)" stroke-linecap="square" stroke-width="2.0"/>
   <ellipse cx="160.0" cy="785.0" fill="rgb(0, 0, 1)" rx="2.0" ry="2.0" stroke="none" stroke-width="1.0"/>
   <ellipse cx="160.0" cy="805.0" fill="rgb(0, 0, 1)" rx="2.0" ry="2.0" stroke="none" stroke-width="1.0"/>
   <ellipse cx="200.0" cy="795.0" fill="rgb(0, 0, 1)" rx="2.0" ry="2.0" stroke="none" stroke-width="1.0"/>
   <rect fill="rgb(0, 0, 0)" height="3" stroke="none" stroke-linecap="square" stroke-width="1.0" width="8" x="185" y="794"/>
   <polygon fill="rgb(0, 0, 0)" points="191,791 195,795 191,799" stroke="none" stroke-linecap="square" stroke-width="1.0"/>
   <polyline fill="none" points="160,835 199,835" stroke="rgb(0, 0, 0)" stroke-linecap="square" stroke-width="2.0"/>
   <polyline fill="none" points="200,835 200,874" stroke="rgb(0, 0, 0)" stroke-linecap="square" stroke-width="2.0"/>
   <polyline fill="none" points="200,875 161,875" stroke="rgb(0, 0, 0)" stroke-linecap="square" stroke-width="2.0"/>
   <polyline fill="none" points="160,875 160,836" stroke="rgb(0, 0, 0)" stroke-linecap="square" stroke-width="2.0"/>
   <ellipse cx="160.0" cy="855.0" fill="rgb(0, 0, 1)" rx="2.0" ry="2.0" stroke="none" stroke-width="1.0"/>
   <ellipse cx="200.0" cy="855.0" fill="rgb(0, 0, 1)" rx="2.0" ry="2.0" stroke="none" stroke-width="1.0"/>
   <text fill="rgb(0, 0, 0)" font-family="SansSerif" font-size="12" x="187.0" y="862.0">-x</text>
   <polyline fill="none" points="160,895 199,895" stroke="rgb(0, 0, 0)" stroke-linecap="square" stroke-width="2.0"/>
   <polyline fill="none" points="200,895 200,934" stroke="rgb(0, 0, 0)" stroke-linecap="square" stroke-width="2.0"/>
   <polyline fill="none" points="200,935 161,935" stroke="rgb(0, 0, 0)" stroke-linecap="square" stroke-width="2.0"/>
   <polyline fill="none" points="160,935 160,896" stroke="rgb(0, 0, 0)" stroke-linecap="square" stroke-width="2.0"/>
   <ellipse cx="160.0" cy="905.0" fill="rgb(0, 0, 1)" rx="2.0" ry="2.0" stroke="none" stroke-width="1.0"/>
   <ellipse cx="160.0" cy="925.0" fill="rgb(0, 0, 1)" rx="2.0" ry="2.0" stroke="none" stroke-width="1.0"/>
   <ellipse cx="200.0" cy="905.0" fill="rgb(40, 39, 255)" rx="2.0" ry="2.0" stroke="none" stroke-width="1.0"/>
   <text fill="rgb(0, 0, 0)" font-family="SansSerif" font-size="12" x="190.0" y="912.0">&gt;</text>
   <ellipse cx="200.0" cy="915.0" fill="rgb(40, 39, 255)" rx="2.0" ry="2.0" stroke="none" stroke-width="1.0"/>
   <text fill="rgb(0, 0, 0)" font-family="SansSerif" font-size="12" x="190.0" y="922.0">=</text>
   <ellipse cx="200.0" cy="925.0" fill="rgb(40, 39, 255)" rx="2.0" ry="2.0" stroke="none" stroke-width="1.0"/>
   <text fill="rgb(0, 0, 0)" font-family="SansSerif" font-size="12" x="190.0" y="932.0">&lt;</text>
   <polyline fill="none" points="160,55 199,55" stroke="rgb(0, 0, 0)" stroke-linecap="square" stroke-width="2.0"/>
   <polyline fill="none" points="200,55 200,94" stroke="rgb(0, 0, 0)" stroke-linecap="square" stroke-width="2.0"/>
   <polyline fill="none" points="200,95 161,95" stroke="rgb(0, 0, 0)" stroke-linecap="square" stroke-width="2.0"/>
   <polyline fill="none" points="160,95 160,56" stroke="rgb(0, 0, 0)" stroke-linecap="square" stroke-width="2.0"/>
   <ellipse cx="160.0" cy="65.0" fill="rgb(0, 0, 1)" rx="2.0" ry="2.0" stroke="none" stroke-width="1.0"/>
   <ellipse cx="160.0" cy="85.0" fill="rgb(0, 0, 1)" rx="2.0" ry="2.0" stroke="none" stroke-width="1.0"/>
   <ellipse cx="200.0" cy="75.0" fill="rgb(0, 0, 1)" rx="2.0" ry="2.0" stroke="none" stroke-width="1.0"/>
   <ellipse cx="180.0" cy="55.0" fill="rgb(40, 39, 255)" rx="2.0" ry="2.0" stroke="none" stroke-width="1.0"/>
   <text fill="rgb(128, 128, 128)" font-family="SansSerif" font-size="12" x="171.0" y="71.0">c in</text>
   <ellipse cx="180.0" cy="95.0" fill="rgb(40, 39, 255)" rx="2.0" ry="2.0" stroke="none" stroke-width="1.0"/>
   <text fill="rgb(128, 128, 128)" font-family="SansSerif" font-size="12" x="167.0" y="92.0">c out</text>
   <polyline fill="none" points="185,75 195,75" stroke="rgb(0, 0, 0)" stroke-linecap="square" stroke-width="2.0"/>
   <polyline fill="none" points="190,70 190,80" stroke="rgb(0, 0, 0)" stroke-linecap="square" stroke-width="2.0"/>
   <polyline fill="none" points="160,145 199,145" stroke="rgb(0, 0, 0)" stroke-linecap="square" stroke-width="2.0"/>
   <polyline fill="none" points="200,145 200,184" stroke="rgb(0, 0, 0)" stroke-linecap="square" stroke-width="2.0"/>
   <polyline fill="none" points="200,185 161,185" stroke="rgb(0, 0, 0)" stroke-linecap="square" stroke-width="2.0"/>
   <polyline fill="none" points="160,185 160,146" stroke="rgb(0, 0, 0)" stroke-linecap="square" stroke-width="2.0"/>
   <ellipse cx="160.0" cy="155.0" fill="rgb(0, 0, 1)" rx="2.0" ry="2.0" stroke="none" stroke-width="1.0"/>
   <ellipse cx="160.0" cy="175.0" fill="rgb(0, 0, 1)" rx="2.0" ry="2.0" stroke="none" stroke-width="1.0"/>
   <ellipse cx="200.0" cy="165.0" fill="rgb(0, 0, 1)" rx="2.0" ry="2.0" stroke="none" stroke-width="1.0"/>
   <ellipse cx="180.0" cy="145.0" fill="rgb(40, 39, 255)" rx="2.0" ry="2.0" stroke="none" stroke-width="1.0"/>
   <text fill="rgb(128, 128, 128)" font-family="SansSerif" font-size="12" x="170.0" y="161.0">b in</text>
   <ellipse cx="180.0" cy="185.0" fill="rgb(40, 39, 255)" rx="2.0" ry="2.0" stroke="none" stroke-width="1.0"/>
   <text fill="rgb(128, 128, 128)" font-family="SansSerif" font-size="12" x="166.0" y="182.0">b out</text>
   <polyline fill="none" points="185,165 195,165" stroke="rgb(0, 0, 0)" stroke-linecap="square" stroke-width="2.0"/>
   <polyline fill="none" points="160,245 199,245" stroke="rgb(0, 0, 0)" stroke-linecap="square" stroke-width="2.0"/>
   <polyline fill="none" points="200,245 200,284" stroke="rgb(0, 0, 0)" stroke-linecap="square" stroke-width="2.0"/>
   <polyline fill="none" points="200,285 161,285" stroke="rgb(0, 0, 0)" stroke-linecap="square" stroke-width="2.0"/>
   <polyline fill="none" points="160,285 160,246" stroke="rgb(0, 0, 0)" stroke-linecap="square" stroke-width="2.0"/>
   <ellipse cx="160.0" cy="255.0" fill="rgb(0, 0, 1)" rx="2.0" ry="2.0" stroke="none" stroke-width="1.0"/>
   <ellipse cx="160.0" cy="275.0" fill="rgb(0, 0, 1)" rx="2.0" ry="2.0" stroke="none" stroke-width="1.0"/>
   <ellipse cx="200.0" cy="265.0" fill="rgb(0, 0, 1)" rx="2.0" ry="2.0" stroke="none" stroke-width="1.0"/>
   <ellipse cx="180.0" cy="245.0" fill="rgb(0, 0, 1)" rx="2.0" ry="2.0" stroke="none" stroke-width="1.0"/>
   <text fill="rgb(128, 128, 128)" font-family="SansSerif" font-size="12" x="171.0" y="261.0">c in</text>
   <ellipse cx="180.0" cy="285.0" fill="rgb(0, 0, 1)" rx="2.0" ry="2.0" stroke="none" stroke-width="1.0"/>
   <text fill="rgb(128, 128, 128)" font-family="SansSerif" font-size="12" x="167.0" y="282.0">c out</text>
   <polyline fill="none" points="185,260 195,270" stroke="rgb(0, 0, 0)" stroke-linecap="square" stroke-width="2.0"/>
   <polyline fill="none" points="185,270 195,260" stroke="rgb(0, 0, 0)" stroke-linecap="square" stroke-width="2.0"/>
   <polyline fill="none" points="160,325 199,325" stroke="rgb(0, 0, 0)" stroke-linecap="square" stroke-width="2.0"/>
   <polyline fill="none" points="200,325 200,364" stroke="rgb(0, 0, 0)" stroke-linecap="square" stroke-width="2.0"/>
   <polyline fill="none" points="200,365 161,365" stroke="rgb(0, 0, 0)" stroke-linecap="square" stroke-width="2.0"/>
   <polyline fill="none" points="160,365 160,326" stroke="rgb(0, 0, 0)" stroke-linecap="square" stroke-width="2.0"/>
   <ellipse cx="160.0" cy="335.0" fill="rgb(0, 0, 1)" rx="2.0" ry="2.0" stroke="none" stroke-width="1.0"/>
   <ellipse cx="160.0" cy="355.0" fill="rgb(0, 0, 1)" rx="2.0" ry="2.0" stroke="none" stroke-width="1.0"/>
   <ellipse cx="200.0" cy="345.0" fill="rgb(0, 0, 1)" rx="2.0" ry="2.0" stroke="none" stroke-width="1.0"/>
   <ellipse cx="180.0" cy="325.0" fill="rgb(0, 0, 1)" rx="2.0" ry="2.0" stroke="none" stroke-width="1.0"/>
   <text fill="rgb(128, 128, 128)" font-family="SansSerif" font-size="12" x="164.0" y="341.0">upper</text>
   <ellipse cx="180.0" cy="365.0" fill="rgb(0, 0, 1)" rx="2.0" ry="2.0" stroke="none" stroke-width="1.0"/>
   <text fill="rgb(128, 128, 128)" font-family="SansSerif" font-size="12" x="169.0" y="362.0">rem</text>
   <ellipse cx="190.0" cy="340.0" fill="rgb(0, 0, 0)" rx="2.0" ry="2.0" stroke="none" stroke-width="2.0"/>
   <polyline fill="none" points="185,345 195,345" stroke="rgb(0, 0, 0)" stroke-linecap="square" stroke-width="2.0"/>
   <ellipse cx="190.0" cy="350.0" fill="rgb(0, 0, 0)" rx="2.0" ry="2.0" stroke="none" stroke-width="2.0"/>
   <polyline fill="none" points="160,595 199,595" stroke="rgb(0, 0, 0)" stroke-linecap="square" stroke-width="2.0"/>
   <polyline fill="none" points="200,595 200,634" stroke="rgb(0, 0, 0)" stroke-linecap="square" stroke-width="2.0"/>
   <polyline fill="none" points="200,635 161,635" stroke="rgb(0, 0, 0)" stroke-linecap="square" stroke-width="2.0"/>
   <polyline fill="none" points="160,635 160,596" stroke="rgb(0, 0, 0)" stroke-linecap="square" stroke-width="2.0"/>
   <ellipse cx="160.0" cy="605.0" fill="rgb(0, 0, 1)" rx="2.0" ry="2.0" stroke="none" stroke-width="1.0"/>
   <ellipse cx="160.0" cy="625.0" fill="rgb(0, 0, 1)" rx="2.0" ry="2.0" stroke="none" stroke-width="1.0"/>
   <ellipse cx="200.0" cy="615.0" fill="rgb(0, 0, 1)" rx="2.0" ry="2.0" stroke="none" stroke-width="1.0"/>
   <rect fill="rgb(0, 0, 0)" height="3" stroke="none" stroke-linecap="square" stroke-width="1.0" width="8" x="187" y="614"/>
   <polygon fill="rgb(0, 0, 0)" points="189,619 185,615 189,611" stroke="none" stroke-linecap="square" stroke-width="1.0"/>
   <polyline fill="none" points="160,655 199,655" stroke="rgb(0, 0, 0)" stroke-linecap="square" stroke-width="2.0"/>
   <polyline fill="none" points="200,655 200,694" stroke="rgb(0, 0, 0)" stroke-linecap="square" stroke-width="2.0"/>
   <polyline fill="none" points="200,695 161,695" stroke="rgb(0, 0, 0)" stroke-linecap="square" stroke-width="2.0"/>
   <polyline fill="none" points="160,695 160,656" stroke="rgb(0, 0, 0)" stroke-linecap="square" stroke-width="2.0"/>
   <ellipse cx="160.0" cy="665.0" fill="rgb(0, 0, 1)" rx="2.0" ry="2.0" stroke="none" stroke-width="1.0"/>
   <ellipse cx="160.0" cy="685.0" fill="rgb(0, 0, 1)" rx="2.0" ry="2.0" stroke="none" stroke-width="1.0"/>
   <ellipse cx="200.0" cy="675.0" fill="rgb(0, 0, 1)" rx="2.0" ry="2.0" stroke="none" stroke-width="1.0"/>
   <rect fill="rgb(0, 0, 0)" height="3" stroke="none" stroke-linecap="square" stroke-width="1.0" width="8" x="187" y="674"/>
   <polygon fill="rgb(0, 0, 0)" points="189,679 185,675 189,671" stroke="none" stroke-linecap="square" stroke-width="1.0"/>
</svg>
