<?xml version="1.0" encoding="UTF-8" standalone="no"?>
<svg xmlns="http://www.w3.org/2000/svg" version="1.1" viewBox="0 0 1046 684">
   <polyline fill="none" points="205,325 375,325" stroke="rgb(40, 39, 255)" stroke-linecap="square" stroke-width="3.0"/>
   <polyline fill="none" points="205,405 375,405" stroke="rgb(0, 0, 1)" stroke-linecap="square" stroke-width="4.0"/>
   <polyline fill="none" points="205,245 235,245" stroke="rgb(40, 39, 255)" stroke-linecap="square" stroke-width="3.0"/>
   <polyline fill="none" points="205,45 545,45" stroke="rgb(40, 39, 255)" stroke-linecap="square" stroke-width="3.0"/>
   <polyline fill="none" points="205,85 225,85" stroke="rgb(40, 39, 255)" stroke-linecap="square" stroke-width="3.0"/>
   <polyline fill="none" points="325,255 335,255 335,365 375,365" stroke="rgb(40, 39, 255)" stroke-linecap="square" stroke-width="3.0"/>
   <polyline fill="none" points="625,405 575,405 575,665 645,665" stroke="rgb(0, 0, 1)" stroke-linecap="square" stroke-width="4.0"/>
   <polyline fill="none" points="295,245 235,245 235,345 375,345" stroke="rgb(40, 39, 255)" stroke-linecap="square" stroke-width="3.0"/>
   <polyline fill="none" points="205,125 215,125 215,105 225,105" stroke="rgb(40, 39, 255)" stroke-linecap="square" stroke-width="3.0"/>
   <polyline fill="none" points="205,275 285,275 285,265 295,265" stroke="rgb(40, 39, 255)" stroke-linecap="square" stroke-width="3.0"/>
   <polyline fill="none" points="865,485 875,485" stroke="rgb(0, 0, 1)" stroke-linecap="square" stroke-width="4.0"/>
   <polyline fill="none" points="205,185 215,185 215,375 375,375" stroke="rgb(40, 39, 255)" stroke-linecap="square" stroke-width="3.0"/>
   <polyline fill="none" points="375,315 275,315 275,215 665,215 665,395" stroke="rgb(40, 39, 255)" stroke-linecap="square" stroke-width="3.0"/>
   <polyline fill="none" points="255,95 275,95 535,95 535,65 545,65" stroke="rgb(40, 39, 255)" stroke-linecap="square" stroke-width="3.0"/>
   <polyline fill="none" points="565,405 575,405" stroke="rgb(0, 0, 1)" stroke-linecap="square" stroke-width="4.0"/>
   <polyline fill="none" points="575,55 585,55 585,455 625,455" stroke="rgb(40, 39, 255)" stroke-linecap="square" stroke-width="3.0"/>
   <polyline fill="none" points="205,155 615,155 615,485 625,485" stroke="rgb(0, 0, 1)" stroke-linecap="square" stroke-width="4.0"/>
   <polyline fill="none" points="275,95 275,215" stroke="rgb(40, 39, 255)" stroke-linecap="square" stroke-width="3.0"/>
   <polyline fill="none" points="205,15 595,15 595,445 625,445" stroke="rgb(40, 39, 255)" stroke-linecap="square" stroke-width="3.0"/>
   <polyline fill="none" points="215,185 605,185 605,465 625,465" stroke="rgb(40, 39, 255)" stroke-linecap="square" stroke-width="3.0"/>
   <ellipse cx="275.0" cy="95.0" fill="rgb(40, 39, 255)" rx="5.0" ry="5.0" stroke="none" stroke-width="3.0"/>
   <ellipse cx="575.0" cy="405.0" fill="rgb(0, 0, 1)" rx="6.0" ry="6.0" stroke="none" stroke-width="3.0"/>
   <ellipse cx="215.0" cy="185.0" fill="rgb(40, 39, 255)" rx="5.0" ry="5.0" stroke="none" stroke-width="3.0"/>
   <ellipse cx="235.0" cy="245.0" fill="rgb(40, 39, 255)" rx="5.0" ry="5.0" stroke="none" stroke-width="3.0"/>
   <ellipse cx="275.0" cy="215.0" fill="rgb(40, 39, 255)" rx="5.0" ry="5.0" stroke="none" stroke-width="3.0"/>
   <rect fill="none" height="18" rx="3.0" ry="3.0" stroke="rgb(0, 0, 0)" stroke-linecap="square" stroke-width="2.0" width="78" x="877" y="477"/>
   <text fill="rgb(0, 0, 0)" font-family="Monospaced" font-size="12" x="947.0" y="492.0">U</text>
   <text fill="rgb(0, 0, 0)" font-family="Monospaced" font-size="12" x="937.0" y="492.0">U</text>
   <text fill="rgb(0, 0, 0)" font-family="Monospaced" font-size="12" x="927.0" y="492.0">U</text>
   <text fill="rgb(0, 0, 0)" font-family="Monospaced" font-size="12" x="917.0" y="492.0">U</text>
   <text fill="rgb(0, 0, 0)" font-family="Monospaced" font-size="12" x="907.0" y="492.0">U</text>
   <text fill="rgb(0, 0, 0)" font-family="Monospaced" font-size="12" x="897.0" y="492.0">U</text>
   <text fill="rgb(0, 0, 0)" font-family="Monospaced" font-size="12" x="887.0" y="492.0">U</text>
   <text fill="rgb(0, 0, 0)" font-family="Monospaced" font-size="12" x="877.0" y="492.0">U</text>
   <text fill="rgb(0, 0, 255)" font-family="Monospaced" font-size="16" font-weight="bold" x="957.0" y="494.0">DATA_OUT</text>
   <ellipse cx="875.0" cy="485.0" fill="rgb(0, 0, 1)" rx="2.0" ry="2.0" stroke="none" stroke-width="2.0"/>
   <polyline fill="none" points="187,37 204,37" stroke="rgb(0, 0, 0)" stroke-linecap="square" stroke-width="2.0"/>
   <polyline fill="none" points="205,37 205,54" stroke="rgb(0, 0, 0)" stroke-linecap="square" stroke-width="2.0"/>
   <polyline fill="none" points="205,55 188,55" stroke="rgb(0, 0, 0)" stroke-linecap="square" stroke-width="2.0"/>
   <polyline fill="none" points="187,55 187,38" stroke="rgb(0, 0, 0)" stroke-linecap="square" stroke-width="2.0"/>
   <ellipse cx="195.0" cy="45.0" fill="rgb(0, 101, 0)" rx="5.5" ry="6.5" stroke="none" stroke-width="2.0"/>
   <text fill="rgb(255, 255, 255)" font-family="Monospaced" font-size="12" x="192.0" y="51.0">0</text>
   <text fill="rgb(0, 0, 255)" font-family="Monospaced" font-size="16" font-weight="bold" x="102.0" y="54.0">READ_TOS</text>
   <ellipse cx="205.0" cy="45.0" fill="rgb(40, 39, 255)" rx="2.0" ry="2.0" stroke="none" stroke-width="2.0"/>
   <rect fill="rgb(255, 200, 0)" height="40" stroke="none" stroke-linecap="square" stroke-width="2.0" width="200" x="5" y="65"/>
   <polyline fill="none" points="5,65 204,65" stroke="rgb(0, 0, 0)" stroke-linecap="square" stroke-width="2.0"/>
   <polyline fill="none" points="205,65 205,104" stroke="rgb(0, 0, 0)" stroke-linecap="square" stroke-width="2.0"/>
   <polyline fill="none" points="205,105 6,105" stroke="rgb(0, 0, 0)" stroke-linecap="square" stroke-width="2.0"/>
   <polyline fill="none" points="5,105 5,66" stroke="rgb(0, 0, 0)" stroke-linecap="square" stroke-width="2.0"/>
   <text fill="rgb(0, 0, 0)" font-family="SansSerif" font-size="18" font-weight="bold" x="33.0" y="91.0">Power-On Reset</text>
   <ellipse cx="205.0" cy="85.0" fill="rgb(40, 39, 255)" rx="2.0" ry="2.0" stroke="none" stroke-width="2.0"/>
   <polyline fill="none" points="187,117 204,117" stroke="rgb(0, 0, 0)" stroke-linecap="square" stroke-width="2.0"/>
   <polyline fill="none" points="205,117 205,134" stroke="rgb(0, 0, 0)" stroke-linecap="square" stroke-width="2.0"/>
   <polyline fill="none" points="205,135 188,135" stroke="rgb(0, 0, 0)" stroke-linecap="square" stroke-width="2.0"/>
   <polyline fill="none" points="187,135 187,118" stroke="rgb(0, 0, 0)" stroke-linecap="square" stroke-width="2.0"/>
   <ellipse cx="195.0" cy="125.0" fill="rgb(0, 101, 0)" rx="5.5" ry="6.5" stroke="none" stroke-width="2.0"/>
   <text fill="rgb(255, 255, 255)" font-family="Monospaced" font-size="12" x="192.0" y="131.0">0</text>
   <text fill="rgb(0, 0, 255)" font-family="Monospaced" font-size="16" font-weight="bold" x="136.0" y="134.0">RESET</text>
   <ellipse cx="205.0" cy="125.0" fill="rgb(40, 39, 255)" rx="2.0" ry="2.0" stroke="none" stroke-width="2.0"/>
   <polyline fill="none" points="127,147 204,147" stroke="rgb(0, 0, 0)" stroke-linecap="square" stroke-width="2.0"/>
   <polyline fill="none" points="205,147 205,164" stroke="rgb(0, 0, 0)" stroke-linecap="square" stroke-width="2.0"/>
   <polyline fill="none" points="205,165 128,165" stroke="rgb(0, 0, 0)" stroke-linecap="square" stroke-width="2.0"/>
   <polyline fill="none" points="127,165 127,148" stroke="rgb(0, 0, 0)" stroke-linecap="square" stroke-width="2.0"/>
   <text fill="rgb(0, 0, 0)" font-family="Monospaced" font-size="12" x="197.0" y="162.0">U</text>
   <text fill="rgb(0, 0, 0)" font-family="Monospaced" font-size="12" x="187.0" y="162.0">U</text>
   <text fill="rgb(0, 0, 0)" font-family="Monospaced" font-size="12" x="177.0" y="162.0">U</text>
   <text fill="rgb(0, 0, 0)" font-family="Monospaced" font-size="12" x="167.0" y="162.0">U</text>
   <text fill="rgb(0, 0, 0)" font-family="Monospaced" font-size="12" x="157.0" y="162.0">U</text>
   <text fill="rgb(0, 0, 0)" font-family="Monospaced" font-size="12" x="147.0" y="162.0">U</text>
   <text fill="rgb(0, 0, 0)" font-family="Monospaced" font-size="12" x="137.0" y="162.0">U</text>
   <text fill="rgb(0, 0, 0)" font-family="Monospaced" font-size="12" x="127.0" y="162.0">U</text>
   <text fill="rgb(0, 0, 255)" font-family="Monospaced" font-size="16" font-weight="bold" x="54.0" y="164.0">DATA_IN</text>
   <ellipse cx="205.0" cy="155.0" fill="rgb(0, 0, 1)" rx="2.0" ry="2.0" stroke="none" stroke-width="2.0"/>
   <polyline fill="none" points="187,177 204,177" stroke="rgb(0, 0, 0)" stroke-linecap="square" stroke-width="2.0"/>
   <polyline fill="none" points="205,177 205,194" stroke="rgb(0, 0, 0)" stroke-linecap="square" stroke-width="2.0"/>
   <polyline fill="none" points="205,195 188,195" stroke="rgb(0, 0, 0)" stroke-linecap="square" stroke-width="2.0"/>
   <polyline fill="none" points="187,195 187,178" stroke="rgb(0, 0, 0)" stroke-linecap="square" stroke-width="2.0"/>
   <ellipse cx="195.0" cy="185.0" fill="rgb(0, 101, 0)" rx="5.5" ry="6.5" stroke="none" stroke-width="2.0"/>
   <text fill="rgb(255, 255, 255)" font-family="Monospaced" font-size="12" x="192.0" y="191.0">0</text>
   <text fill="rgb(0, 0, 255)" font-family="Monospaced" font-size="16" font-weight="bold" x="153.0" y="194.0">CLK</text>
   <ellipse cx="205.0" cy="185.0" fill="rgb(40, 39, 255)" rx="2.0" ry="2.0" stroke="none" stroke-width="2.0"/>
   <polyline fill="none" points="187,237 204,237" stroke="rgb(0, 0, 0)" stroke-linecap="square" stroke-width="2.0"/>
   <polyline fill="none" points="205,237 205,254" stroke="rgb(0, 0, 0)" stroke-linecap="square" stroke-width="2.0"/>
   <polyline fill="none" points="205,255 188,255" stroke="rgb(0, 0, 0)" stroke-linecap="square" stroke-width="2.0"/>
   <polyline fill="none" points="187,255 187,238" stroke="rgb(0, 0, 0)" stroke-linecap="square" stroke-width="2.0"/>
   <ellipse cx="195.0" cy="245.0" fill="rgb(0, 101, 0)" rx="5.5" ry="6.5" stroke="none" stroke-width="2.0"/>
   <text fill="rgb(255, 255, 255)" font-family="Monospaced" font-size="12" x="192.0" y="251.0">0</text>
   <text fill="rgb(0, 0, 255)" font-family="Monospaced" font-size="16" font-weight="bold" x="140.0" y="254.0">PUSH</text>
   <ellipse cx="205.0" cy="245.0" fill="rgb(40, 39, 255)" rx="2.0" ry="2.0" stroke="none" stroke-width="2.0"/>
   <polyline fill="none" points="187,267 204,267" stroke="rgb(0, 0, 0)" stroke-linecap="square" stroke-width="2.0"/>
   <polyline fill="none" points="205,267 205,284" stroke="rgb(0, 0, 0)" stroke-linecap="square" stroke-width="2.0"/>
   <polyline fill="none" points="205,285 188,285" stroke="rgb(0, 0, 0)" stroke-linecap="square" stroke-width="2.0"/>
   <polyline fill="none" points="187,285 187,268" stroke="rgb(0, 0, 0)" stroke-linecap="square" stroke-width="2.0"/>
   <ellipse cx="195.0" cy="275.0" fill="rgb(0, 101, 0)" rx="5.5" ry="6.5" stroke="none" stroke-width="2.0"/>
   <text fill="rgb(255, 255, 255)" font-family="Monospaced" font-size="12" x="192.0" y="281.0">0</text>
   <text fill="rgb(0, 0, 255)" font-family="Monospaced" font-size="16" font-weight="bold" x="150.0" y="284.0">POP</text>
   <ellipse cx="205.0" cy="275.0" fill="rgb(40, 39, 255)" rx="2.0" ry="2.0" stroke="none" stroke-width="2.0"/>
   <polyline fill="none" points="187,317 204,317" stroke="rgb(0, 0, 0)" stroke-linecap="square" stroke-width="2.0"/>
   <polyline fill="none" points="205,317 205,334" stroke="rgb(0, 0, 0)" stroke-linecap="square" stroke-width="2.0"/>
   <polyline fill="none" points="205,335 188,335" stroke="rgb(0, 0, 0)" stroke-linecap="square" stroke-width="2.0"/>
   <polyline fill="none" points="187,335 187,318" stroke="rgb(0, 0, 0)" stroke-linecap="square" stroke-width="2.0"/>
   <ellipse cx="195.0" cy="325.0" fill="rgb(0, 101, 0)" rx="5.5" ry="6.5" stroke="none" stroke-width="2.0"/>
   <text fill="rgb(255, 255, 255)" font-family="Monospaced" font-size="12" x="192.0" y="331.0">0</text>
   <text fill="rgb(0, 0, 255)" font-family="Monospaced" font-size="16" font-weight="bold" x="112.0" y="334.0">LOAD_SP</text>
   <ellipse cx="205.0" cy="325.0" fill="rgb(40, 39, 255)" rx="2.0" ry="2.0" stroke="none" stroke-width="2.0"/>
   <polyline fill="none" points="127,397 204,397" stroke="rgb(0, 0, 0)" stroke-linecap="square" stroke-width="2.0"/>
   <polyline fill="none" points="205,397 205,414" stroke="rgb(0, 0, 0)" stroke-linecap="square" stroke-width="2.0"/>
   <polyline fill="none" points="205,415 128,415" stroke="rgb(0, 0, 0)" stroke-linecap="square" stroke-width="2.0"/>
   <polyline fill="none" points="127,415 127,398" stroke="rgb(0, 0, 0)" stroke-linecap="square" stroke-width="2.0"/>
   <text fill="rgb(0, 0, 0)" font-family="Monospaced" font-size="12" x="197.0" y="412.0">U</text>
   <text fill="rgb(0, 0, 0)" font-family="Monospaced" font-size="12" x="187.0" y="412.0">U</text>
   <text fill="rgb(0, 0, 0)" font-family="Monospaced" font-size="12" x="177.0" y="412.0">U</text>
   <text fill="rgb(0, 0, 0)" font-family="Monospaced" font-size="12" x="167.0" y="412.0">U</text>
   <text fill="rgb(0, 0, 0)" font-family="Monospaced" font-size="12" x="157.0" y="412.0">U</text>
   <text fill="rgb(0, 0, 0)" font-family="Monospaced" font-size="12" x="147.0" y="412.0">U</text>
   <text fill="rgb(0, 0, 0)" font-family="Monospaced" font-size="12" x="137.0" y="412.0">U</text>
   <text fill="rgb(0, 0, 0)" font-family="Monospaced" font-size="12" x="127.0" y="412.0">U</text>
   <text fill="rgb(0, 0, 255)" font-family="Monospaced" font-size="16" font-weight="bold" x="78.0" y="414.0">SP_IN</text>
   <ellipse cx="205.0" cy="405.0" fill="rgb(0, 0, 1)" rx="2.0" ry="2.0" stroke="none" stroke-width="2.0"/>
   <polyline fill="none" points="187,7 204,7" stroke="rgb(0, 0, 0)" stroke-linecap="square" stroke-width="2.0"/>
   <polyline fill="none" points="205,7 205,24" stroke="rgb(0, 0, 0)" stroke-linecap="square" stroke-width="2.0"/>
   <polyline fill="none" points="205,25 188,25" stroke="rgb(0, 0, 0)" stroke-linecap="square" stroke-width="2.0"/>
   <polyline fill="none" points="187,25 187,8" stroke="rgb(0, 0, 0)" stroke-linecap="square" stroke-width="2.0"/>
   <ellipse cx="195.0" cy="15.0" fill="rgb(0, 101, 0)" rx="5.5" ry="6.5" stroke="none" stroke-width="2.0"/>
   <text fill="rgb(255, 255, 255)" font-family="Monospaced" font-size="12" x="192.0" y="21.0">0</text>
   <text fill="rgb(0, 0, 255)" font-family="Monospaced" font-size="16" font-weight="bold" x="95.0" y="24.0">WRITE_TOS</text>
   <ellipse cx="205.0" cy="15.0" fill="rgb(40, 39, 255)" rx="2.0" ry="2.0" stroke="none" stroke-width="2.0"/>
   <rect fill="none" height="18" rx="3.0" ry="3.0" stroke="rgb(0, 0, 0)" stroke-linecap="square" stroke-width="2.0" width="78" x="647" y="657"/>
   <text fill="rgb(0, 0, 0)" font-family="Monospaced" font-size="12" x="717.0" y="672.0">U</text>
   <text fill="rgb(0, 0, 0)" font-family="Monospaced" font-size="12" x="707.0" y="672.0">U</text>
   <text fill="rgb(0, 0, 0)" font-family="Monospaced" font-size="12" x="697.0" y="672.0">U</text>
   <text fill="rgb(0, 0, 0)" font-family="Monospaced" font-size="12" x="687.0" y="672.0">U</text>
   <text fill="rgb(0, 0, 0)" font-family="Monospaced" font-size="12" x="677.0" y="672.0">U</text>
   <text fill="rgb(0, 0, 0)" font-family="Monospaced" font-size="12" x="667.0" y="672.0">U</text>
   <text fill="rgb(0, 0, 0)" font-family="Monospaced" font-size="12" x="657.0" y="672.0">U</text>
   <text fill="rgb(0, 0, 0)" font-family="Monospaced" font-size="12" x="647.0" y="672.0">U</text>
   <text fill="rgb(0, 0, 255)" font-family="Monospaced" font-size="16" font-weight="bold" x="727.0" y="674.0">SP_OUT</text>
   <ellipse cx="645.0" cy="665.0" fill="rgb(0, 0, 1)" rx="2.0" ry="2.0" stroke="none" stroke-width="2.0"/>
   <polyline fill="none" points="225,80 254,80" stroke="rgb(0, 0, 0)" stroke-linecap="square" stroke-width="2.0"/>
   <polyline fill="none" points="255,80 255,109" stroke="rgb(0, 0, 0)" stroke-linecap="square" stroke-width="2.0"/>
   <polyline fill="none" points="255,110 226,110" stroke="rgb(0, 0, 0)" stroke-linecap="square" stroke-width="2.0"/>
   <polyline fill="none" points="225,110 225,81" stroke="rgb(0, 0, 0)" stroke-linecap="square" stroke-width="2.0"/>
   <text fill="rgb(0, 0, 0)" font-family="SansSerif" font-size="12" x="231.0" y="95.0">≥1</text>
   <ellipse cx="255.0" cy="95.0" fill="rgb(40, 39, 255)" rx="2.0" ry="2.0" stroke="none" stroke-width="2.0"/>
   <ellipse cx="225.0" cy="85.0" fill="rgb(40, 39, 255)" rx="2.0" ry="2.0" stroke="none" stroke-width="2.0"/>
   <ellipse cx="225.0" cy="105.0" fill="rgb(40, 39, 255)" rx="2.0" ry="2.0" stroke="none" stroke-width="2.0"/>
   <polyline fill="none" points="295,240 324,240" stroke="rgb(0, 0, 0)" stroke-linecap="square" stroke-width="2.0"/>
   <polyline fill="none" points="325,240 325,269" stroke="rgb(0, 0, 0)" stroke-linecap="square" stroke-width="2.0"/>
   <polyline fill="none" points="325,270 296,270" stroke="rgb(0, 0, 0)" stroke-linecap="square" stroke-width="2.0"/>
   <polyline fill="none" points="295,270 295,241" stroke="rgb(0, 0, 0)" stroke-linecap="square" stroke-width="2.0"/>
   <text fill="rgb(0, 0, 0)" font-family="SansSerif" font-size="12" x="301.0" y="255.0">≥1</text>
   <ellipse cx="325.0" cy="255.0" fill="rgb(40, 39, 255)" rx="2.0" ry="2.0" stroke="none" stroke-width="2.0"/>
   <ellipse cx="295.0" cy="245.0" fill="rgb(40, 39, 255)" rx="2.0" ry="2.0" stroke="none" stroke-width="2.0"/>
   <ellipse cx="295.0" cy="265.0" fill="rgb(40, 39, 255)" rx="2.0" ry="2.0" stroke="none" stroke-width="2.0"/>
   <polyline fill="none" points="545,40 574,40" stroke="rgb(0, 0, 0)" stroke-linecap="square" stroke-width="2.0"/>
   <polyline fill="none" points="575,40 575,69" stroke="rgb(0, 0, 0)" stroke-linecap="square" stroke-width="2.0"/>
   <polyline fill="none" points="575,70 546,70" stroke="rgb(0, 0, 0)" stroke-linecap="square" stroke-width="2.0"/>
   <polyline fill="none" points="545,70 545,41" stroke="rgb(0, 0, 0)" stroke-linecap="square" stroke-width="2.0"/>
   <text fill="rgb(0, 0, 0)" font-family="SansSerif" font-size="12" x="551.0" y="55.0">≥1</text>
   <ellipse cx="575.0" cy="55.0" fill="rgb(40, 39, 255)" rx="2.0" ry="2.0" stroke="none" stroke-width="2.0"/>
   <ellipse cx="545.0" cy="45.0" fill="rgb(40, 39, 255)" rx="2.0" ry="2.0" stroke="none" stroke-width="2.0"/>
   <ellipse cx="545.0" cy="65.0" fill="rgb(40, 39, 255)" rx="2.0" ry="2.0" stroke="none" stroke-width="2.0"/>
   <text fill="rgb(0, 0, 255)" font-family="SansSerif" font-size="16" font-weight="bold" x="406.0" y="292.0">STACK_POINTER</text>
   <polyline fill="none" points="405,405 405,395 395,395 395,295 545,295 545,395 535,395 535,405" stroke="rgb(0, 0, 0)" stroke-linecap="square" stroke-width="2.0"/>
   <polyline fill="none" points="396,371 403,375 396,379" stroke="rgb(0, 0, 0)" stroke-linecap="square" stroke-width="2.0"/>
   <polyline fill="none" points="396,381 403,385 396,389" stroke="rgb(0, 0, 0)" stroke-linecap="square" stroke-width="2.0"/>
   <text fill="rgb(0, 0, 0)" font-family="SansSerif" font-size="12" x="456.0" y="307.0">CTR8</text>
   <polyline fill="none" points="375,315 395,315" stroke="rgb(0, 0, 0)" stroke-linecap="square" stroke-width="2.0"/>
   <text fill="rgb(0, 0, 0)" font-family="SansSerif" font-size="12" x="405.0" y="322.0">R</text>
   <ellipse cx="375.0" cy="315.0" fill="rgb(40, 39, 255)" rx="2.0" ry="2.0" stroke="none" stroke-width="2.0"/>
   <polyline fill="none" points="375,325 395,325" stroke="rgb(0, 0, 0)" stroke-linecap="square" stroke-width="2.0"/>
   <polyline fill="none" points="380,325 380,335 387,335" stroke="rgb(0, 0, 0)" stroke-linecap="square" stroke-width="2.0"/>
   <ellipse cx="391.0" cy="335.0" fill="none" rx="4.0" ry="4.0" stroke="rgb(0, 0, 0)" stroke-width="2.0"/>
   <ellipse cx="380.0" cy="325.0" fill="rgb(0, 0, 0)" rx="3.0" ry="3.0" stroke="none" stroke-width="2.0"/>
   <ellipse cx="375.0" cy="325.0" fill="rgb(40, 39, 255)" rx="2.0" ry="2.0" stroke="none" stroke-width="2.0"/>
   <text fill="rgb(0, 0, 0)" font-family="SansSerif" font-size="12" x="405.0" y="342.0">M2 [count]</text>
   <text fill="rgb(0, 0, 0)" font-family="SansSerif" font-size="12" x="405.0" y="332.0">M1 [load]</text>
   <polyline fill="none" points="375,345 395,345" stroke="rgb(0, 0, 0)" stroke-linecap="square" stroke-width="2.0"/>
   <polyline fill="none" points="380,345 380,355 387,355" stroke="rgb(0, 0, 0)" stroke-linecap="square" stroke-width="2.0"/>
   <ellipse cx="391.0" cy="355.0" fill="none" rx="4.0" ry="4.0" stroke="rgb(0, 0, 0)" stroke-width="2.0"/>
   <ellipse cx="380.0" cy="345.0" fill="rgb(0, 0, 0)" rx="3.0" ry="3.0" stroke="none" stroke-width="2.0"/>
   <text fill="rgb(0, 0, 0)" font-family="SansSerif" font-size="12" x="405.0" y="352.0">M3 [up]</text>
   <text fill="rgb(0, 0, 0)" font-family="SansSerif" font-size="12" x="405.0" y="362.0">M4 [down]</text>
   <ellipse cx="375.0" cy="345.0" fill="rgb(40, 39, 255)" rx="2.0" ry="2.0" stroke="none" stroke-width="2.0"/>
   <polyline fill="none" points="375,365 395,365" stroke="rgb(0, 0, 0)" stroke-linecap="square" stroke-width="2.0"/>
   <text fill="rgb(0, 0, 0)" font-family="SansSerif" font-size="12" x="405.0" y="372.0">G5</text>
   <ellipse cx="375.0" cy="365.0" fill="rgb(40, 39, 255)" rx="2.0" ry="2.0" stroke="none" stroke-width="2.0"/>
   <polyline fill="none" points="375,375 395,375" stroke="rgb(0, 0, 0)" stroke-linecap="square" stroke-width="2.0"/>
   <polyline fill="none" points="380,375 380,385 395,385" stroke="rgb(0, 0, 0)" stroke-linecap="square" stroke-width="2.0"/>
   <ellipse cx="380.0" cy="375.0" fill="rgb(0, 0, 0)" rx="3.0" ry="3.0" stroke="none" stroke-width="2.0"/>
   <text fill="rgb(0, 0, 0)" font-family="SansSerif" font-size="12" x="405.0" y="382.0">2,3,5+/C6</text>
   <text fill="rgb(0, 0, 0)" font-family="SansSerif" font-size="12" x="405.0" y="392.0">2,4,5-</text>
   <ellipse cx="375.0" cy="375.0" fill="rgb(40, 39, 255)" rx="2.0" ry="2.0" stroke="none" stroke-width="2.0"/>
   <polyline fill="none" points="545,345 565,345" stroke="rgb(0, 0, 0)" stroke-linecap="square" stroke-width="2.0"/>
   <polyline fill="none" points="560,345 560,355 545,355" stroke="rgb(0, 0, 0)" stroke-linecap="square" stroke-width="2.0"/>
   <ellipse cx="560.0" cy="345.0" fill="rgb(0, 0, 0)" rx="3.0" ry="3.0" stroke="none" stroke-width="2.0"/>
   <text fill="rgb(0, 0, 0)" font-family="SansSerif" font-size="12" x="488.0" y="352.0">3CT=0xFF</text>
   <text fill="rgb(0, 0, 0)" font-family="SansSerif" font-size="12" x="506.0" y="362.0">4CT=0</text>
   <ellipse cx="565.0" cy="345.0" fill="rgb(40, 39, 255)" rx="2.0" ry="2.0" stroke="none" stroke-width="2.0"/>
   <polyline fill="none" points="395,405 544,405" stroke="rgb(0, 0, 0)" stroke-linecap="square" stroke-width="2.0"/>
   <polyline fill="none" points="545,405 545,424" stroke="rgb(0, 0, 0)" stroke-linecap="square" stroke-width="2.0"/>
   <polyline fill="none" points="380,410 385,415 395,415" stroke="rgb(0, 0, 0)" stroke-linecap="square" stroke-width="2.0"/>
   <polyline fill="none" points="545,415 555,415 560,410" stroke="rgb(0, 0, 0)" stroke-linecap="square" stroke-width="2.0"/>
   <text fill="rgb(0, 0, 0)" font-family="SansSerif" font-size="7" x="551.0" y="413.0">0</text>
   <text fill="rgb(0, 0, 0)" font-family="SansSerif" font-size="7" x="385.0" y="413.0">0</text>
   <text fill="rgb(0, 0, 0)" font-family="SansSerif" font-size="12" x="396.0" y="422.0">1,6D</text>
   <ellipse cx="375.0" cy="405.0" fill="rgb(0, 0, 1)" rx="2.0" ry="2.0" stroke="none" stroke-width="4.0"/>
   <ellipse cx="565.0" cy="405.0" fill="rgb(0, 0, 1)" rx="2.0" ry="2.0" stroke="none" stroke-width="4.0"/>
   <polyline fill="none" points="395,406 395,425 544,425" stroke="rgb(0, 0, 0)" stroke-linecap="square" stroke-width="2.0"/>
   <polyline fill="none" points="396,425 545,425 545,444" stroke="rgb(0, 0, 0)" stroke-linecap="square" stroke-width="2.0"/>
   <polyline fill="none" points="380,430 385,435 395,435" stroke="rgb(0, 0, 0)" stroke-linecap="square" stroke-width="2.0"/>
   <polyline fill="none" points="545,435 555,435 560,430" stroke="rgb(0, 0, 0)" stroke-linecap="square" stroke-width="2.0"/>
   <text fill="rgb(0, 0, 0)" font-family="SansSerif" font-size="7" x="551.0" y="433.0">1</text>
   <text fill="rgb(0, 0, 0)" font-family="SansSerif" font-size="7" x="385.0" y="433.0">1</text>
   <text fill="rgb(0, 0, 0)" font-family="SansSerif" font-size="12" x="396.0" y="442.0">1,6D</text>
   <polyline fill="none" points="395,426 395,445 544,445" stroke="rgb(0, 0, 0)" stroke-linecap="square" stroke-width="2.0"/>
   <polyline fill="none" points="396,445 545,445 545,464" stroke="rgb(0, 0, 0)" stroke-linecap="square" stroke-width="2.0"/>
   <polyline fill="none" points="380,450 385,455 395,455" stroke="rgb(0, 0, 0)" stroke-linecap="square" stroke-width="2.0"/>
   <polyline fill="none" points="545,455 555,455 560,450" stroke="rgb(0, 0, 0)" stroke-linecap="square" stroke-width="2.0"/>
   <text fill="rgb(0, 0, 0)" font-family="SansSerif" font-size="7" x="551.0" y="453.0">2</text>
   <text fill="rgb(0, 0, 0)" font-family="SansSerif" font-size="7" x="385.0" y="453.0">2</text>
   <text fill="rgb(0, 0, 0)" font-family="SansSerif" font-size="12" x="396.0" y="462.0">1,6D</text>
   <polyline fill="none" points="395,446 395,465 544,465" stroke="rgb(0, 0, 0)" stroke-linecap="square" stroke-width="2.0"/>
   <polyline fill="none" points="396,465 545,465 545,484" stroke="rgb(0, 0, 0)" stroke-linecap="square" stroke-width="2.0"/>
   <polyline fill="none" points="380,470 385,475 395,475" stroke="rgb(0, 0, 0)" stroke-linecap="square" stroke-width="2.0"/>
   <polyline fill="none" points="545,475 555,475 560,470" stroke="rgb(0, 0, 0)" stroke-linecap="square" stroke-width="2.0"/>
   <text fill="rgb(0, 0, 0)" font-family="SansSerif" font-size="7" x="551.0" y="473.0">3</text>
   <text fill="rgb(0, 0, 0)" font-family="SansSerif" font-size="7" x="385.0" y="473.0">3</text>
   <text fill="rgb(0, 0, 0)" font-family="SansSerif" font-size="12" x="396.0" y="482.0">1,6D</text>
   <polyline fill="none" points="395,466 395,485 544,485" stroke="rgb(0, 0, 0)" stroke-linecap="square" stroke-width="2.0"/>
   <polyline fill="none" points="396,485 545,485 545,504" stroke="rgb(0, 0, 0)" stroke-linecap="square" stroke-width="2.0"/>
   <polyline fill="none" points="380,490 385,495 395,495" stroke="rgb(0, 0, 0)" stroke-linecap="square" stroke-width="2.0"/>
   <polyline fill="none" points="545,495 555,495 560,490" stroke="rgb(0, 0, 0)" stroke-linecap="square" stroke-width="2.0"/>
   <text fill="rgb(0, 0, 0)" font-family="SansSerif" font-size="7" x="551.0" y="493.0">4</text>
   <text fill="rgb(0, 0, 0)" font-family="SansSerif" font-size="7" x="385.0" y="493.0">4</text>
   <text fill="rgb(0, 0, 0)" font-family="SansSerif" font-size="12" x="396.0" y="502.0">1,6D</text>
   <polyline fill="none" points="395,486 395,505 544,505" stroke="rgb(0, 0, 0)" stroke-linecap="square" stroke-width="2.0"/>
   <polyline fill="none" points="396,505 545,505 545,524" stroke="rgb(0, 0, 0)" stroke-linecap="square" stroke-width="2.0"/>
   <polyline fill="none" points="380,510 385,515 395,515" stroke="rgb(0, 0, 0)" stroke-linecap="square" stroke-width="2.0"/>
   <polyline fill="none" points="545,515 555,515 560,510" stroke="rgb(0, 0, 0)" stroke-linecap="square" stroke-width="2.0"/>
   <text fill="rgb(0, 0, 0)" font-family="SansSerif" font-size="7" x="551.0" y="513.0">5</text>
   <text fill="rgb(0, 0, 0)" font-family="SansSerif" font-size="7" x="385.0" y="513.0">5</text>
   <text fill="rgb(0, 0, 0)" font-family="SansSerif" font-size="12" x="396.0" y="522.0">1,6D</text>
   <polyline fill="none" points="395,506 395,525 544,525" stroke="rgb(0, 0, 0)" stroke-linecap="square" stroke-width="2.0"/>
   <polyline fill="none" points="396,525 545,525 545,544" stroke="rgb(0, 0, 0)" stroke-linecap="square" stroke-width="2.0"/>
   <polyline fill="none" points="380,530 385,535 395,535" stroke="rgb(0, 0, 0)" stroke-linecap="square" stroke-width="2.0"/>
   <polyline fill="none" points="545,535 555,535 560,530" stroke="rgb(0, 0, 0)" stroke-linecap="square" stroke-width="2.0"/>
   <text fill="rgb(0, 0, 0)" font-family="SansSerif" font-size="7" x="551.0" y="533.0">6</text>
   <text fill="rgb(0, 0, 0)" font-family="SansSerif" font-size="7" x="385.0" y="533.0">6</text>
   <text fill="rgb(0, 0, 0)" font-family="SansSerif" font-size="12" x="396.0" y="542.0">1,6D</text>
   <polyline fill="none" points="395,526 395,545 544,545" stroke="rgb(0, 0, 0)" stroke-linecap="square" stroke-width="2.0"/>
   <polyline fill="none" points="396,545 545,545 545,564" stroke="rgb(0, 0, 0)" stroke-linecap="square" stroke-width="2.0"/>
   <polyline fill="none" points="545,565 396,565" stroke="rgb(0, 0, 0)" stroke-linecap="square" stroke-width="2.0"/>
   <polyline fill="none" points="395,565 395,546" stroke="rgb(0, 0, 0)" stroke-linecap="square" stroke-width="2.0"/>
   <polyline fill="none" points="380,550 385,555 395,555" stroke="rgb(0, 0, 0)" stroke-linecap="square" stroke-width="2.0"/>
   <polyline fill="none" points="545,555 555,555 560,550" stroke="rgb(0, 0, 0)" stroke-linecap="square" stroke-width="2.0"/>
   <text fill="rgb(0, 0, 0)" font-family="SansSerif" font-size="7" x="551.0" y="553.0">7</text>
   <text fill="rgb(0, 0, 0)" font-family="SansSerif" font-size="7" x="385.0" y="553.0">7</text>
   <text fill="rgb(0, 0, 0)" font-family="SansSerif" font-size="12" x="396.0" y="562.0">1,6D</text>
   <polyline fill="none" points="375,405 380,410 380,425 380,445 380,465 380,485 380,505 380,525 380,545 380,550" stroke="rgb(0, 0, 0)" stroke-linecap="square" stroke-width="4.0"/>
   <polyline fill="none" points="565,405 560,410 560,425 560,445 560,465 560,485 560,505 560,525 560,545 560,550" stroke="rgb(0, 0, 0)" stroke-linecap="square" stroke-width="4.0"/>
   <text fill="rgb(0, 0, 0)" font-family="SansSerif" font-size="16" font-weight="bold" x="697.0" y="388.0">STACK_MEM</text>
   <polyline fill="none" points="655,485 655,475 645,475 645,395 845,395 845,475 835,475 835,485" stroke="rgb(0, 0, 0)" stroke-linecap="square" stroke-width="2.0"/>
   <text fill="rgb(0, 0, 0)" font-family="SansSerif" font-size="12" x="647.0" y="422.0">0</text>
   <text fill="rgb(0, 0, 0)" font-family="SansSerif" font-size="12" x="647.0" y="442.0">7</text>
   <text fill="rgb(0, 0, 0)" font-family="SansSerif" font-size="12" x="675.0" y="432.0">A</text>
   <polyline fill="none" points="665,440 670,435 670,428 673,425 670,422 670,415 665,410" stroke="rgb(0, 0, 0)" stroke-linecap="square" stroke-width="1.0"/>
   <polyline fill="none" points="685,425 706,425" stroke="rgb(0, 0, 0)" stroke-linecap="square" stroke-width="1.0"/>
   <text fill="rgb(0, 0, 0)" font-family="SansSerif" font-size="12" x="692.0" y="420.0">0</text>
   <text fill="rgb(0, 0, 0)" font-family="SansSerif" font-size="12" x="685.0" y="439.0">255</text>
   <text fill="rgb(0, 0, 0)" font-family="SansSerif" font-size="12" x="658.0" y="470.0">C1</text>
   <text fill="rgb(0, 0, 0)" font-family="SansSerif" font-size="12" x="658.0" y="460.0">M2 [Output enable]</text>
   <text fill="rgb(0, 0, 0)" font-family="SansSerif" font-size="12" x="658.0" y="450.0">M3 [Write enable]</text>
   <polyline fill="none" points="645,485 844,485" stroke="rgb(0, 0, 0)" stroke-linecap="square" stroke-width="2.0"/>
   <polyline fill="none" points="845,485 845,504" stroke="rgb(0, 0, 0)" stroke-linecap="square" stroke-width="2.0"/>
   <text fill="rgb(0, 0, 0)" font-family="SansSerif" font-size="9" x="829.0" y="500.0">A,2</text>
   <text fill="rgb(0, 0, 0)" font-family="SansSerif" font-size="9" x="648.0" y="500.0">A,1,3</text>
   <polyline fill="none" points="645,486 645,505 844,505" stroke="rgb(0, 0, 0)" stroke-linecap="square" stroke-width="2.0"/>
   <polyline fill="none" points="646,505 845,505 845,524" stroke="rgb(0, 0, 0)" stroke-linecap="square" stroke-width="2.0"/>
   <text fill="rgb(0, 0, 0)" font-family="SansSerif" font-size="9" x="829.0" y="520.0">A,2</text>
   <text fill="rgb(0, 0, 0)" font-family="SansSerif" font-size="9" x="648.0" y="520.0">A,1,3</text>
   <polyline fill="none" points="645,506 645,525 844,525" stroke="rgb(0, 0, 0)" stroke-linecap="square" stroke-width="2.0"/>
   <polyline fill="none" points="646,525 845,525 845,544" stroke="rgb(0, 0, 0)" stroke-linecap="square" stroke-width="2.0"/>
   <text fill="rgb(0, 0, 0)" font-family="SansSerif" font-size="9" x="829.0" y="540.0">A,2</text>
   <text fill="rgb(0, 0, 0)" font-family="SansSerif" font-size="9" x="648.0" y="540.0">A,1,3</text>
   <polyline fill="none" points="645,526 645,545 844,545" stroke="rgb(0, 0, 0)" stroke-linecap="square" stroke-width="2.0"/>
   <polyline fill="none" points="646,545 845,545 845,564" stroke="rgb(0, 0, 0)" stroke-linecap="square" stroke-width="2.0"/>
   <text fill="rgb(0, 0, 0)" font-family="SansSerif" font-size="9" x="829.0" y="560.0">A,2</text>
   <text fill="rgb(0, 0, 0)" font-family="SansSerif" font-size="9" x="648.0" y="560.0">A,1,3</text>
   <polyline fill="none" points="645,546 645,565 844,565" stroke="rgb(0, 0, 0)" stroke-linecap="square" stroke-width="2.0"/>
   <polyline fill="none" points="646,565 845,565 845,584" stroke="rgb(0, 0, 0)" stroke-linecap="square" stroke-width="2.0"/>
   <text fill="rgb(0, 0, 0)" font-family="SansSerif" font-size="9" x="829.0" y="580.0">A,2</text>
   <text fill="rgb(0, 0, 0)" font-family="SansSerif" font-size="9" x="648.0" y="580.0">A,1,3</text>
   <polyline fill="none" points="645,566 645,585 844,585" stroke="rgb(0, 0, 0)" stroke-linecap="square" stroke-width="2.0"/>
   <polyline fill="none" points="646,585 845,585 845,604" stroke="rgb(0, 0, 0)" stroke-linecap="square" stroke-width="2.0"/>
   <text fill="rgb(0, 0, 0)" font-family="SansSerif" font-size="9" x="829.0" y="600.0">A,2</text>
   <text fill="rgb(0, 0, 0)" font-family="SansSerif" font-size="9" x="648.0" y="600.0">A,1,3</text>
   <polyline fill="none" points="645,586 645,605 844,605" stroke="rgb(0, 0, 0)" stroke-linecap="square" stroke-width="2.0"/>
   <polyline fill="none" points="646,605 845,605 845,624" stroke="rgb(0, 0, 0)" stroke-linecap="square" stroke-width="2.0"/>
   <text fill="rgb(0, 0, 0)" font-family="SansSerif" font-size="9" x="829.0" y="620.0">A,2</text>
   <text fill="rgb(0, 0, 0)" font-family="SansSerif" font-size="9" x="648.0" y="620.0">A,1,3</text>
   <polyline fill="none" points="645,606 645,625 844,625" stroke="rgb(0, 0, 0)" stroke-linecap="square" stroke-width="2.0"/>
   <polyline fill="none" points="646,625 845,625 845,644" stroke="rgb(0, 0, 0)" stroke-linecap="square" stroke-width="2.0"/>
   <polyline fill="none" points="845,645 646,645" stroke="rgb(0, 0, 0)" stroke-linecap="square" stroke-width="2.0"/>
   <polyline fill="none" points="645,645 645,626" stroke="rgb(0, 0, 0)" stroke-linecap="square" stroke-width="2.0"/>
   <text fill="rgb(0, 0, 0)" font-family="SansSerif" font-size="9" x="829.0" y="640.0">A,2</text>
   <text fill="rgb(0, 0, 0)" font-family="SansSerif" font-size="9" x="648.0" y="640.0">A,1,3</text>
   <polyline fill="none" points="625,485 630,490 630,630" stroke="rgb(0, 0, 0)" stroke-linecap="square" stroke-width="4.0"/>
   <polyline fill="none" points="630,490 635,495 645,495" stroke="rgb(0, 0, 0)" stroke-linecap="square" stroke-width="2.0"/>
   <text fill="rgb(0, 0, 0)" font-family="SansSerif" font-size="7" x="638.0" y="492.0">0</text>
   <polyline fill="none" points="630,510 635,515 645,515" stroke="rgb(0, 0, 0)" stroke-linecap="square" stroke-width="2.0"/>
   <text fill="rgb(0, 0, 0)" font-family="SansSerif" font-size="7" x="638.0" y="512.0">1</text>
   <polyline fill="none" points="630,530 635,535 645,535" stroke="rgb(0, 0, 0)" stroke-linecap="square" stroke-width="2.0"/>
   <text fill="rgb(0, 0, 0)" font-family="SansSerif" font-size="7" x="638.0" y="532.0">2</text>
   <polyline fill="none" points="630,550 635,555 645,555" stroke="rgb(0, 0, 0)" stroke-linecap="square" stroke-width="2.0"/>
   <text fill="rgb(0, 0, 0)" font-family="SansSerif" font-size="7" x="638.0" y="552.0">3</text>
   <polyline fill="none" points="630,570 635,575 645,575" stroke="rgb(0, 0, 0)" stroke-linecap="square" stroke-width="2.0"/>
   <text fill="rgb(0, 0, 0)" font-family="SansSerif" font-size="7" x="638.0" y="572.0">4</text>
   <polyline fill="none" points="630,590 635,595 645,595" stroke="rgb(0, 0, 0)" stroke-linecap="square" stroke-width="2.0"/>
   <text fill="rgb(0, 0, 0)" font-family="SansSerif" font-size="7" x="638.0" y="592.0">5</text>
   <polyline fill="none" points="630,610 635,615 645,615" stroke="rgb(0, 0, 0)" stroke-linecap="square" stroke-width="2.0"/>
   <text fill="rgb(0, 0, 0)" font-family="SansSerif" font-size="7" x="638.0" y="612.0">6</text>
   <polyline fill="none" points="630,630 635,635 645,635" stroke="rgb(0, 0, 0)" stroke-linecap="square" stroke-width="2.0"/>
   <text fill="rgb(0, 0, 0)" font-family="SansSerif" font-size="7" x="638.0" y="632.0">7</text>
   <ellipse cx="625.0" cy="485.0" fill="rgb(0, 0, 1)" rx="2.0" ry="2.0" stroke="none" stroke-width="1.0"/>
   <polyline fill="none" points="865,485 860,490 860,630" stroke="rgb(0, 0, 0)" stroke-linecap="square" stroke-width="4.0"/>
   <polyline fill="none" points="860,490 855,495 845,495" stroke="rgb(0, 0, 0)" stroke-linecap="square" stroke-width="2.0"/>
   <text fill="rgb(0, 0, 0)" font-family="SansSerif" font-size="7" x="848.0" y="492.0">0</text>
   <polyline fill="none" points="860,510 855,515 845,515" stroke="rgb(0, 0, 0)" stroke-linecap="square" stroke-width="2.0"/>
   <text fill="rgb(0, 0, 0)" font-family="SansSerif" font-size="7" x="848.0" y="512.0">1</text>
   <polyline fill="none" points="860,530 855,535 845,535" stroke="rgb(0, 0, 0)" stroke-linecap="square" stroke-width="2.0"/>
   <text fill="rgb(0, 0, 0)" font-family="SansSerif" font-size="7" x="848.0" y="532.0">2</text>
   <polyline fill="none" points="860,550 855,555 845,555" stroke="rgb(0, 0, 0)" stroke-linecap="square" stroke-width="2.0"/>
   <text fill="rgb(0, 0, 0)" font-family="SansSerif" font-size="7" x="848.0" y="552.0">3</text>
   <polyline fill="none" points="860,570 855,575 845,575" stroke="rgb(0, 0, 0)" stroke-linecap="square" stroke-width="2.0"/>
   <text fill="rgb(0, 0, 0)" font-family="SansSerif" font-size="7" x="848.0" y="572.0">4</text>
   <polyline fill="none" points="860,590 855,595 845,595" stroke="rgb(0, 0, 0)" stroke-linecap="square" stroke-width="2.0"/>
   <text fill="rgb(0, 0, 0)" font-family="SansSerif" font-size="7" x="848.0" y="592.0">5</text>
   <polyline fill="none" points="860,610 855,615 845,615" stroke="rgb(0, 0, 0)" stroke-linecap="square" stroke-width="2.0"/>
   <text fill="rgb(0, 0, 0)" font-family="SansSerif" font-size="7" x="848.0" y="612.0">6</text>
   <polyline fill="none" points="860,630 855,635 845,635" stroke="rgb(0, 0, 0)" stroke-linecap="square" stroke-width="2.0"/>
   <text fill="rgb(0, 0, 0)" font-family="SansSerif" font-size="7" x="848.0" y="632.0">7</text>
   <ellipse cx="865.0" cy="485.0" fill="rgb(0, 0, 1)" rx="2.0" ry="2.0" stroke="none" stroke-width="1.0"/>
   <polyline fill="none" points="625,405 630,410 630,430" stroke="rgb(0, 0, 0)" stroke-linecap="square" stroke-width="4.0"/>
   <polyline fill="none" points="630,410 635,415 645,415" stroke="rgb(0, 0, 0)" stroke-linecap="square" stroke-width="2.0"/>
   <polyline fill="none" points="640,418 640,420" stroke="rgb(0, 0, 0)" stroke-linecap="square" stroke-width="2.0"/>
   <polyline fill="none" points="640,424 640,426" stroke="rgb(0, 0, 0)" stroke-linecap="square" stroke-width="2.0"/>
   <polyline fill="none" points="640,430 640,432" stroke="rgb(0, 0, 0)" stroke-linecap="square" stroke-width="2.0"/>
   <polyline fill="none" points="630,430 635,435 645,435" stroke="rgb(0, 0, 0)" stroke-linecap="square" stroke-width="2.0"/>
   <ellipse cx="625.0" cy="405.0" fill="rgb(0, 0, 1)" rx="2.0" ry="2.0" stroke="none" stroke-width="1.0"/>
   <polyline fill="none" points="625,455 645,455" stroke="rgb(0, 0, 0)" stroke-linecap="square" stroke-width="2.0"/>
   <ellipse cx="625.0" cy="455.0" fill="rgb(40, 39, 255)" rx="2.0" ry="2.0" stroke="none" stroke-width="1.0"/>
   <polyline fill="none" points="625,445 645,445" stroke="rgb(0, 0, 0)" stroke-linecap="square" stroke-width="2.0"/>
   <ellipse cx="625.0" cy="445.0" fill="rgb(40, 39, 255)" rx="2.0" ry="2.0" stroke="none" stroke-width="1.0"/>
   <polyline fill="none" points="625,465 645,465" stroke="rgb(0, 0, 0)" stroke-linecap="square" stroke-width="2.0"/>
   <polyline fill="none" points="646,461 653,465 646,469" stroke="rgb(0, 0, 0)" stroke-linecap="square" stroke-width="2.0"/>
   <ellipse cx="625.0" cy="465.0" fill="rgb(40, 39, 255)" rx="2.0" ry="2.0" stroke="none" stroke-width="1.0"/>
   <ellipse cx="665.0" cy="395.0" fill="rgb(40, 39, 255)" rx="2.0" ry="2.0" stroke="none" stroke-width="1.0"/>
   <text fill="rgb(0, 0, 0)" font-family="SansSerif" font-size="12" x="711.0" y="408.0">RAM 256 x 8</text>
</svg>
