<?xml version="1.0" encoding="UTF-8" standalone="no"?>
<!-- Created with Digital by H.Neemann -->
<!-- created: Sat Apr 29 14:30:36 CEST 2023 -->

<svg
   xmlns:svg="http://www.w3.org/2000/svg"
   xmlns="http://www.w3.org/2000/svg"
   width="81.15mm"
   height="20.85mm"
   viewBox="151 78 541 139">
<g stroke-linecap="square">
<path d="M 560,140 L 570,140 L 580,140" stroke="#808080" stroke-width="4.0" fill="none"/>
<path d="M 560,160 L 570,160" stroke="#808080" stroke-width="4.0" fill="none"/>
<path d="M 560,180 L 570,180" stroke="#808080" stroke-width="4.0" fill="none"/>
<path d="M 460,140 L 470,140 L 480,140" stroke="#808080" stroke-width="4.0" fill="none"/>
<path d="M 480,160 L 470,160" stroke="#808080" stroke-width="4.0" fill="none"/>
<path d="M 480,180 L 470,180" stroke="#808080" stroke-width="4.0" fill="none"/>
<path d="M 480,160 L 500,160 L 500,180 L 560,180" stroke="#0000b2" stroke-width="4.0" fill="none"/>
<path d="M 240,180 L 280,180 L 280,160 L 320,160" stroke="#0000b2" stroke-width="4.0" fill="none"/>
<path d="M 240,100 L 540,100 L 540,140 L 560,140" stroke="#0000b2" stroke-width="4.0" fill="none"/>
<path d="M 420,140 L 420,200 L 600,200" stroke="#0000b2" stroke-width="4.0" fill="none"/>
<path d="M 380,140 L 420,140 L 460,140" stroke="#0000b2" stroke-width="4.0" fill="none"/>
<path d="M 240,140 L 320,140" stroke="#0000b2" stroke-width="4.0" fill="none"/>
<path d="M 480,140 L 520,140 L 520,160 L 560,160" stroke="#0000b2" stroke-width="4.0" fill="none"/>
<path d="M 580,140 L 600,140 L 600,80 L 280,80 L 280,120 L 320,120" stroke="#0000b2" stroke-width="4.0" fill="none"/>
<g>
<circle cx="420.0" cy="140.0" r="4.0" stroke="#0000b2" stroke-width="4.0" fill="#0000b2" />
</g>
<g>
<path d="M 209,85 L 239,85 L 239,115 L 209,115 Z" stroke="#808080" stroke-width="4.0" fill="none"/>
<circle cx="224.0" cy="100.0" r="9.0" stroke="#808080" stroke-width="4.0" fill="none" />
<text text-anchor="end" x="195.0" y="109.0" fill="#808080" style="font-size:24px"><tspan style="font-style:italic;">IN</tspan></text>
<circle cx="240.0" cy="100.0" r="2.0" stroke="#b20000" stroke-width="4.0" fill="#b20000" />
</g>
<g>
<circle cx="616.0" cy="200.0" r="9.0" stroke="#808080" stroke-width="4.0" fill="none" />
<circle cx="616.0" cy="200.0" r="15.0" stroke="#808080" stroke-width="4.0" fill="none" />
<text text-anchor="start" x="645.0" y="209.0" fill="#808080" style="font-size:24px"><tspan style="font-style:italic;">OUT</tspan></text>
<circle cx="600.0" cy="200.0" r="2.0" stroke="#0000b2" stroke-width="4.0" fill="#0000b2" />
</g>
<g>
<path d="M 321,110 L 379,110 L 379,170 L 321,170 Z" stroke="#808080" stroke-width="4.0" fill="none"/>
<text text-anchor="start" x="324.0" y="126.75" fill="#808080" style="font-size:18px">D</text>
<path d="M 321,147 L 328,140 L 321,133" stroke="#808080" stroke-width="2.0" fill="none"/>
<text text-anchor="start" x="331.0" y="146.75" fill="#808080" style="font-size:18px">C</text>
<text text-anchor="start" x="324.0" y="166.75" fill="#808080" style="font-size:18px">en</text>
<text text-anchor="end" x="376.0" y="146.75" fill="#808080" style="font-size:18px">Q</text>
<text text-anchor="middle" x="350.0" y="187.5" fill="#808080" style="font-size:18px">Reg</text>
<circle cx="320.0" cy="120.0" r="2.0" stroke="#0000b2" stroke-width="4.0" fill="#0000b2" />
<circle cx="320.0" cy="140.0" r="2.0" stroke="#0000b2" stroke-width="4.0" fill="#0000b2" />
<circle cx="320.0" cy="160.0" r="2.0" stroke="#0000b2" stroke-width="4.0" fill="#0000b2" />
<circle cx="380.0" cy="140.0" r="2.0" stroke="#b20000" stroke-width="4.0" fill="#b20000" />
</g>
<g>
<text text-anchor="end" x="558.0" y="137.0" fill="#808080" style="font-size:12px">0-6</text>
<text text-anchor="end" x="558.0" y="157.0" fill="#808080" style="font-size:12px">7-13</text>
<text text-anchor="end" x="558.0" y="177.0" fill="#808080" style="font-size:12px">14-20</text>
<text text-anchor="start" x="582.0" y="137.0" fill="#808080" style="font-size:12px">0-20</text>
<path d="M 568,138 L 572,138 L 572,182 L 568,182 Z" stroke="#808080" stroke-width="4.0" fill="#808080" fill-opacity="1.0"/>
<circle cx="560.0" cy="140.0" r="2.0" stroke="#0000b2" stroke-width="4.0" fill="#0000b2" />
<circle cx="560.0" cy="160.0" r="2.0" stroke="#0000b2" stroke-width="4.0" fill="#0000b2" />
<circle cx="560.0" cy="180.0" r="2.0" stroke="#0000b2" stroke-width="4.0" fill="#0000b2" />
<circle cx="580.0" cy="140.0" r="2.0" stroke="#b20000" stroke-width="4.0" fill="#b20000" />
</g>
<g>
<text text-anchor="end" x="458.0" y="137.0" fill="#808080" style="font-size:12px">0-20</text>
<text text-anchor="start" x="482.0" y="137.0" fill="#808080" style="font-size:12px">0-6</text>
<text text-anchor="start" x="482.0" y="157.0" fill="#808080" style="font-size:12px">7-13</text>
<text text-anchor="start" x="482.0" y="177.0" fill="#808080" style="font-size:12px">14-20</text>
<path d="M 468,138 L 472,138 L 472,182 L 468,182 Z" stroke="#808080" stroke-width="4.0" fill="#808080" fill-opacity="1.0"/>
<circle cx="460.0" cy="140.0" r="2.0" stroke="#0000b2" stroke-width="4.0" fill="#0000b2" />
<circle cx="480.0" cy="140.0" r="2.0" stroke="#b20000" stroke-width="4.0" fill="#b20000" />
<circle cx="480.0" cy="160.0" r="2.0" stroke="#b20000" stroke-width="4.0" fill="#b20000" />
<circle cx="480.0" cy="180.0" r="2.0" stroke="#b20000" stroke-width="4.0" fill="#b20000" />
</g>
<g>
<path d="M 209,125 L 239,125 L 239,155 L 209,155 Z" stroke="#808080" stroke-width="4.0" fill="none"/>
<circle cx="224.0" cy="140.0" r="9.0" stroke="#808080" stroke-width="4.0" fill="none" />
<text text-anchor="end" x="195.0" y="149.0" fill="#808080" style="font-size:24px"><tspan style="font-style:italic;">CLK</tspan></text>
<circle cx="240.0" cy="140.0" r="2.0" stroke="#b20000" stroke-width="4.0" fill="#b20000" />
</g>
<g>
<path d="M 209,165 L 239,165 L 239,195 L 209,195 Z" stroke="#808080" stroke-width="4.0" fill="none"/>
<circle cx="224.0" cy="180.0" r="9.0" stroke="#808080" stroke-width="4.0" fill="none" />
<text text-anchor="end" x="195.0" y="189.0" fill="#808080" style="font-size:24px"><tspan style="font-style:italic;">ENA</tspan></text>
<circle cx="240.0" cy="180.0" r="2.0" stroke="#b20000" stroke-width="4.0" fill="#b20000" />
</g>
</g>
</svg>