<?xml version="1.0" encoding="UTF-8" standalone="no"?>
<!-- Created with Digital by H.Neemann -->
<!-- created: Sat Apr 29 17:23:10 CEST 2023 -->

<svg
   xmlns:svg="http://www.w3.org/2000/svg"
   xmlns="http://www.w3.org/2000/svg"
   width="128.7mm"
   height="84.6mm"
   viewBox="748 118 858 564">
<g stroke-linecap="square">
<path d="M 760,320 L 780,320" stroke="#0000b2" stroke-width="4.0" fill="none"/>
<path d="M 1240,600 L 1240,640 L 1540,640 L 1540,600" stroke="#0000b2" stroke-width="4.0" fill="none"/>
<path d="M 1060,420 L 1120,420 L 1120,280 L 1300,280" stroke="#0000b2" stroke-width="4.0" fill="none"/>
<path d="M 1360,260 L 1380,260 L 1540,260 L 1540,160" stroke="#0000b2" stroke-width="4.0" fill="none"/>
<path d="M 1560,580 L 1600,580 L 1600,680 L 880,680 L 880,400 L 900,400" stroke="#0000b2" stroke-width="4.0" fill="none"/>
<path d="M 1340,580 L 1520,580" stroke="#0000b2" stroke-width="4.0" fill="none"/>
<path d="M 840,360 L 860,360 L 900,360" stroke="#0000b2" stroke-width="4.0" fill="none"/>
<path d="M 1060,360 L 1160,360 L 1160,320 L 1200,320" stroke="#0000b2" stroke-width="4.0" fill="none"/>
<path d="M 1380,300 L 1380,260 L 1380,200 L 1420,200" stroke="#0000b2" stroke-width="4.0" fill="none"/>
<path d="M 840,300 L 880,300 L 880,340 L 900,340" stroke="#0000b2" stroke-width="4.0" fill="none"/>
<path d="M 1400,340 L 1400,460 L 1420,460" stroke="#0000b2" stroke-width="4.0" fill="none"/>
<path d="M 1480,460 L 1520,460" stroke="#0000b2" stroke-width="4.0" fill="none"/>
<path d="M 1560,460 L 1600,460 L 1600,140 L 1560,140" stroke="#0000b2" stroke-width="4.0" fill="none"/>
<path d="M 1480,140 L 1520,140" stroke="#0000b2" stroke-width="4.0" fill="none"/>
<path d="M 1140,440 L 1140,140 L 1420,140" stroke="#0000b2" stroke-width="4.0" fill="none"/>
<path d="M 1060,400 L 1100,400 L 1100,200 L 1300,200" stroke="#0000b2" stroke-width="4.0" fill="none"/>
<path d="M 1060,340 L 1080,340 L 1080,240 L 760,240 L 760,280 L 780,280" stroke="#0000b2" stroke-width="4.0" fill="none"/>
<path d="M 1180,340 L 1200,340" stroke="#0000b2" stroke-width="4.0" fill="none"/>
<path d="M 1260,340 L 1280,340 L 1280,240" stroke="#0000b2" stroke-width="4.0" fill="none"/>
<path d="M 1360,180 L 1400,180 L 1420,180" stroke="#0000b2" stroke-width="4.0" fill="none"/>
<path d="M 1380,380 L 1380,500 L 1420,500" stroke="#0000b2" stroke-width="4.0" fill="none"/>
<path d="M 1060,440 L 1140,440 L 1420,440" stroke="#0000b2" stroke-width="4.0" fill="none"/>
<path d="M 840,380 L 900,380" stroke="#0000b2" stroke-width="4.0" fill="none"/>
<path d="M 1060,380 L 1080,380 L 1080,600 L 1240,600 L 1280,600" stroke="#0000b2" stroke-width="4.0" fill="none"/>
<path d="M 1380,340 L 1380,380 L 1540,380 L 1540,440" stroke="#0000b2" stroke-width="4.0" fill="none"/>
<path d="M 1300,160 L 1280,160 L 1280,240 L 1300,240" stroke="#0000b2" stroke-width="4.0" fill="none"/>
<path d="M 1600,460 L 1600,580" stroke="#0000b2" stroke-width="4.0" fill="none"/>
<path d="M 1420,420 L 1160,420 L 1160,560 L 1280,560" stroke="#0000b2" stroke-width="4.0" fill="none"/>
<path d="M 1160,360 L 1160,420" stroke="#0000b2" stroke-width="4.0" fill="none"/>
<path d="M 1400,180 L 1400,300" stroke="#0000b2" stroke-width="4.0" fill="none"/>
<path d="M 1420,480 L 860,480 L 860,360 L 860,120 L 1400,120 L 1400,160 L 1420,160" stroke="#0000b2" stroke-width="4.0" fill="none"/>
<path d="M 840,374 L 840,380" stroke="#808080" stroke-width="4.0" fill="none"/>
<path d="M 760,314 L 760,320" stroke="#808080" stroke-width="4.0" fill="none"/>
<path d="M 1540,440 L 1540,453" stroke="#808080" stroke-width="4.0" fill="none"/>
<path d="M 1540,160 L 1540,147" stroke="#808080" stroke-width="4.0" fill="none"/>
<path d="M 1540,600 L 1540,587" stroke="#808080" stroke-width="4.0" fill="none"/>
<g>
<circle cx="1160.0" cy="420.0" r="4.0" stroke="#0000b2" stroke-width="4.0" fill="#0000b2" />
<circle cx="1380.0" cy="260.0" r="4.0" stroke="#0000b2" stroke-width="4.0" fill="#0000b2" />
<circle cx="1600.0" cy="580.0" r="4.0" stroke="#0000b2" stroke-width="4.0" fill="#0000b2" />
<circle cx="860.0" cy="360.0" r="4.0" stroke="#0000b2" stroke-width="4.0" fill="#0000b2" />
<circle cx="1160.0" cy="360.0" r="4.0" stroke="#0000b2" stroke-width="4.0" fill="#0000b2" />
<circle cx="1600.0" cy="460.0" r="4.0" stroke="#0000b2" stroke-width="4.0" fill="#0000b2" />
<circle cx="1280.0" cy="240.0" r="4.0" stroke="#0000b2" stroke-width="4.0" fill="#0000b2" />
<circle cx="1400.0" cy="180.0" r="4.0" stroke="#0000b2" stroke-width="4.0" fill="#0000b2" />
<circle cx="1240.0" cy="600.0" r="4.0" stroke="#0000b2" stroke-width="4.0" fill="#0000b2" />
<circle cx="1140.0" cy="440.0" r="4.0" stroke="#0000b2" stroke-width="4.0" fill="#0000b2" />
<circle cx="1380.0" cy="380.0" r="4.0" stroke="#0000b2" stroke-width="4.0" fill="#0000b2" />
</g>
<g>
<path d="M 901,326 L 1059,326 L 1059,454 L 901,454 Z" stroke="#ffffb4" stroke-width="0.0" fill="#ffffb4" fill-opacity="0.7843137254901961"/>
<path d="M 901,326 L 1059,326 L 1059,454 L 901,454 Z" stroke="#808080" stroke-width="4.0" fill="none"/>
<text text-anchor="start" x="904.0" y="346.75" fill="#808080" style="font-size:18px">IROM<tspan style="font-size:80%;baseline-shift:sub;">IN</tspan></text>
<text text-anchor="start" x="904.0" y="366.75" fill="#808080" style="font-size:18px">CLK</text>
<text text-anchor="start" x="904.0" y="386.75" fill="#808080" style="font-size:18px">ENA</text>
<text text-anchor="start" x="904.0" y="406.75" fill="#808080" style="font-size:18px">DATA<tspan style="font-size:80%;baseline-shift:sub;">IN</tspan></text>
<text text-anchor="end" x="1056.0" y="346.75" fill="#808080" style="font-size:18px">IROM<tspan style="font-size:80%;baseline-shift:sub;">ADDR</tspan></text>
<text text-anchor="end" x="1056.0" y="366.75" fill="#808080" style="font-size:18px">DATA<tspan style="font-size:80%;baseline-shift:sub;">ADDR</tspan></text>
<text text-anchor="end" x="1056.0" y="386.75" fill="#808080" style="font-size:18px">DROM<tspan style="font-size:80%;baseline-shift:sub;">READ</tspan></text>
<text text-anchor="end" x="1056.0" y="406.75" fill="#808080" style="font-size:18px">DRAM<tspan style="font-size:80%;baseline-shift:sub;">READ</tspan></text>
<text text-anchor="end" x="1056.0" y="426.75" fill="#808080" style="font-size:18px">DRAM<tspan style="font-size:80%;baseline-shift:sub;">WRITE</tspan></text>
<text text-anchor="end" x="1056.0" y="446.75" fill="#808080" style="font-size:18px">DATA<tspan style="font-size:80%;baseline-shift:sub;">OUT</tspan></text>
<text text-anchor="middle" x="980.0" y="471.5" fill="#808080" style="font-size:18px">t3lc_mini</text>
<circle cx="900.0" cy="340.0" r="2.0" stroke="#0000b2" stroke-width="4.0" fill="#0000b2" />
<circle cx="900.0" cy="360.0" r="2.0" stroke="#0000b2" stroke-width="4.0" fill="#0000b2" />
<circle cx="900.0" cy="380.0" r="2.0" stroke="#0000b2" stroke-width="4.0" fill="#0000b2" />
<circle cx="900.0" cy="400.0" r="2.0" stroke="#0000b2" stroke-width="4.0" fill="#0000b2" />
<circle cx="1060.0" cy="340.0" r="2.0" stroke="#b20000" stroke-width="4.0" fill="#b20000" />
<circle cx="1060.0" cy="360.0" r="2.0" stroke="#b20000" stroke-width="4.0" fill="#b20000" />
<circle cx="1060.0" cy="380.0" r="2.0" stroke="#b20000" stroke-width="4.0" fill="#b20000" />
<circle cx="1060.0" cy="400.0" r="2.0" stroke="#b20000" stroke-width="4.0" fill="#b20000" />
<circle cx="1060.0" cy="420.0" r="2.0" stroke="#b20000" stroke-width="4.0" fill="#b20000" />
<circle cx="1060.0" cy="440.0" r="2.0" stroke="#b20000" stroke-width="4.0" fill="#b20000" />
</g>
<g>
<path d="M 809,345 L 839,345 L 839,375 L 809,375 Z" stroke="#808080" stroke-width="4.0" fill="none"/>
<path d="M 815,365 L 820,365 L 820,355 L 825,355 L 825,365 L 830,365 L 830,355 L 835,355" stroke="#808080" stroke-width="2.0" fill="none"/>
<circle cx="840.0" cy="360.0" r="2.0" stroke="#b20000" stroke-width="4.0" fill="#b20000" />
</g>
<g>
<path d="M 830,384 L 840,371 L 850,384" stroke="#808080" stroke-width="4.0" fill="none"/>
<circle cx="840.0" cy="380.0" r="2.0" stroke="#b20000" stroke-width="4.0" fill="#b20000" />
</g>
<g>
<path d="M 781,270 L 839,270 L 839,330 L 781,330 Z" stroke="#808080" stroke-width="4.0" fill="none"/>
<text text-anchor="middle" x="810.0" y="262.0" fill="#808080" style="font-size:24px">IROM</text>
<text text-anchor="start" x="784.0" y="286.75" fill="#808080" style="font-size:18px">A</text>
<text text-anchor="start" x="784.0" y="326.75" fill="#808080" style="font-size:18px">sel</text>
<text text-anchor="end" x="836.0" y="306.75" fill="#808080" style="font-size:18px">D</text>
<text text-anchor="middle" x="810.0" y="347.5" fill="#808080" style="font-size:18px">ROM</text>
<circle cx="780.0" cy="280.0" r="2.0" stroke="#0000b2" stroke-width="4.0" fill="#0000b2" />
<circle cx="780.0" cy="320.0" r="2.0" stroke="#0000b2" stroke-width="4.0" fill="#0000b2" />
<circle cx="840.0" cy="300.0" r="2.0" stroke="#b20000" stroke-width="4.0" fill="#b20000" />
</g>
<g>
<path d="M 1281,550 L 1339,550 L 1339,610 L 1281,610 Z" stroke="#808080" stroke-width="4.0" fill="none"/>
<text text-anchor="middle" x="1310.0" y="542.0" fill="#808080" style="font-size:24px">DROM</text>
<text text-anchor="start" x="1284.0" y="566.75" fill="#808080" style="font-size:18px">A</text>
<text text-anchor="start" x="1284.0" y="606.75" fill="#808080" style="font-size:18px">sel</text>
<text text-anchor="end" x="1336.0" y="586.75" fill="#808080" style="font-size:18px">D</text>
<text text-anchor="middle" x="1310.0" y="627.5" fill="#808080" style="font-size:18px">ROM</text>
<circle cx="1280.0" cy="560.0" r="2.0" stroke="#0000b2" stroke-width="4.0" fill="#0000b2" />
<circle cx="1280.0" cy="600.0" r="2.0" stroke="#0000b2" stroke-width="4.0" fill="#0000b2" />
<circle cx="1340.0" cy="580.0" r="2.0" stroke="#b20000" stroke-width="4.0" fill="#b20000" />
</g>
<g>
<path d="M 1421,410 L 1479,410 L 1479,510 L 1421,510 Z" stroke="#808080" stroke-width="4.0" fill="none"/>
<text text-anchor="middle" x="1450.0" y="402.0" fill="#808080" style="font-size:24px">DRAM</text>
<text text-anchor="start" x="1424.0" y="426.75" fill="#808080" style="font-size:18px">A</text>
<text text-anchor="start" x="1424.0" y="446.75" fill="#808080" style="font-size:18px">Din</text>
<text text-anchor="start" x="1424.0" y="466.75" fill="#808080" style="font-size:18px">str</text>
<path d="M 1421,487 L 1428,480 L 1421,473" stroke="#808080" stroke-width="2.0" fill="none"/>
<text text-anchor="start" x="1431.0" y="486.75" fill="#808080" style="font-size:18px">C</text>
<text text-anchor="start" x="1424.0" y="506.75" fill="#808080" style="font-size:18px">ld</text>
<text text-anchor="end" x="1476.0" y="466.75" fill="#808080" style="font-size:18px">D</text>
<text text-anchor="middle" x="1450.0" y="527.5" fill="#808080" style="font-size:18px">RAM</text>
<circle cx="1420.0" cy="420.0" r="2.0" stroke="#0000b2" stroke-width="4.0" fill="#0000b2" />
<circle cx="1420.0" cy="440.0" r="2.0" stroke="#0000b2" stroke-width="4.0" fill="#0000b2" />
<circle cx="1420.0" cy="460.0" r="2.0" stroke="#0000b2" stroke-width="4.0" fill="#0000b2" />
<circle cx="1420.0" cy="480.0" r="2.0" stroke="#0000b2" stroke-width="4.0" fill="#0000b2" />
<circle cx="1420.0" cy="500.0" r="2.0" stroke="#0000b2" stroke-width="4.0" fill="#0000b2" />
<circle cx="1480.0" cy="460.0" r="2.0" stroke="#b20000" stroke-width="4.0" fill="#b20000" />
</g>
<g>
<path d="M 750,324 L 760,311 L 770,324" stroke="#808080" stroke-width="4.0" fill="none"/>
<circle cx="760.0" cy="320.0" r="2.0" stroke="#b20000" stroke-width="4.0" fill="#b20000" />
</g>
<g>
<path d="M 1421,130 L 1479,130 L 1479,210 L 1421,210 Z" stroke="#808080" stroke-width="4.0" fill="none"/>
<text text-anchor="start" x="1424.0" y="146.75" fill="#808080" style="font-size:18px">in</text>
<path d="M 1421,167 L 1428,160 L 1421,153" stroke="#808080" stroke-width="2.0" fill="none"/>
<text text-anchor="start" x="1431.0" y="166.75" fill="#808080" style="font-size:18px">C</text>
<text text-anchor="start" x="1424.0" y="186.75" fill="#808080" style="font-size:18px">wr</text>
<text text-anchor="start" x="1424.0" y="206.75" fill="#808080" style="font-size:18px">rd</text>
<text text-anchor="end" x="1476.0" y="146.75" fill="#808080" style="font-size:18px">out</text>
<text text-anchor="end" x="1476.0" y="166.75" fill="#808080" style="font-size:18px">av</text>
<text text-anchor="middle" x="1450.0" y="227.5" fill="#808080" style="font-size:18px">Telnet</text>
<circle cx="1420.0" cy="140.0" r="2.0" stroke="#0000b2" stroke-width="4.0" fill="#0000b2" />
<circle cx="1420.0" cy="160.0" r="2.0" stroke="#0000b2" stroke-width="4.0" fill="#0000b2" />
<circle cx="1420.0" cy="180.0" r="2.0" stroke="#0000b2" stroke-width="4.0" fill="#0000b2" />
<circle cx="1420.0" cy="200.0" r="2.0" stroke="#0000b2" stroke-width="4.0" fill="#0000b2" />
<circle cx="1480.0" cy="140.0" r="2.0" stroke="#b20000" stroke-width="4.0" fill="#b20000" />
<circle cx="1480.0" cy="160.0" r="2.0" stroke="#b20000" stroke-width="4.0" fill="#b20000" />
</g>
<g>
<path d="M 1201,310 L 1259,310 L 1259,370 L 1201,370 Z" stroke="#808080" stroke-width="4.0" fill="none"/>
<text text-anchor="start" x="1204.0" y="326.75" fill="#808080" style="font-size:18px">a</text>
<text text-anchor="start" x="1204.0" y="346.75" fill="#808080" style="font-size:18px">b</text>
<text text-anchor="end" x="1256.0" y="326.75" fill="#808080" style="font-size:18px">&gt;</text>
<text text-anchor="end" x="1256.0" y="346.75" fill="#808080" style="font-size:18px">=</text>
<text text-anchor="end" x="1256.0" y="366.75" fill="#808080" style="font-size:18px">&lt;</text>
<circle cx="1200.0" cy="320.0" r="2.0" stroke="#0000b2" stroke-width="4.0" fill="#0000b2" />
<circle cx="1200.0" cy="340.0" r="2.0" stroke="#0000b2" stroke-width="4.0" fill="#0000b2" />
<circle cx="1260.0" cy="320.0" r="2.0" stroke="#b20000" stroke-width="4.0" fill="#b20000" />
<circle cx="1260.0" cy="340.0" r="2.0" stroke="#b20000" stroke-width="4.0" fill="#b20000" />
<circle cx="1260.0" cy="360.0" r="2.0" stroke="#b20000" stroke-width="4.0" fill="#b20000" />
</g>
<g>
<text text-anchor="end" x="1177.0" y="349.0" fill="#808080" style="font-size:24px">FF</text>
<circle cx="1180.0" cy="340.0" r="2.0" stroke="#b20000" stroke-width="4.0" fill="#b20000" />
</g>
<g>
<path d="M 1301,150 L 1359,150 L 1359,210 L 1301,210 Z" stroke="#808080" stroke-width="4.0" fill="none"/>
<text text-anchor="middle" x="1330.0" y="172.0" fill="#808080" style="font-size:24px">&amp;</text>
<circle cx="1300.0" cy="160.0" r="2.0" stroke="#0000b2" stroke-width="4.0" fill="#0000b2" />
<circle cx="1300.0" cy="200.0" r="2.0" stroke="#0000b2" stroke-width="4.0" fill="#0000b2" />
<circle cx="1360.0" cy="180.0" r="2.0" stroke="#b20000" stroke-width="4.0" fill="#b20000" />
</g>
<g>
<path d="M 1301,230 L 1359,230 L 1359,290 L 1301,290 Z" stroke="#808080" stroke-width="4.0" fill="none"/>
<text text-anchor="middle" x="1330.0" y="252.0" fill="#808080" style="font-size:24px">&amp;</text>
<circle cx="1300.0" cy="240.0" r="2.0" stroke="#0000b2" stroke-width="4.0" fill="#0000b2" />
<circle cx="1300.0" cy="280.0" r="2.0" stroke="#0000b2" stroke-width="4.0" fill="#0000b2" />
<circle cx="1360.0" cy="260.0" r="2.0" stroke="#b20000" stroke-width="4.0" fill="#b20000" />
</g>
<g>
<path d="M 1390,301 L 1390,319 L 1370,319 L 1370,301 Z" stroke="#808080" stroke-width="4.0" fill="none"/>
<circle cx="1380.0" cy="330.0" r="9.0" stroke="#808080" stroke-width="4.0" fill="none" />
<circle cx="1380.0" cy="300.0" r="2.0" stroke="#0000b2" stroke-width="4.0" fill="#0000b2" />
<circle cx="1380.0" cy="340.0" r="2.0" stroke="#b20000" stroke-width="4.0" fill="#b20000" />
</g>
<g>
<path d="M 1410,301 L 1410,319 L 1390,319 L 1390,301 Z" stroke="#808080" stroke-width="4.0" fill="none"/>
<circle cx="1400.0" cy="330.0" r="9.0" stroke="#808080" stroke-width="4.0" fill="none" />
<circle cx="1400.0" cy="300.0" r="2.0" stroke="#0000b2" stroke-width="4.0" fill="#0000b2" />
<circle cx="1400.0" cy="340.0" r="2.0" stroke="#b20000" stroke-width="4.0" fill="#b20000" />
</g>
<g>
<path d="M 1521,448 L 1559,460 L 1521,472 Z" stroke="#808080" stroke-width="4.0" fill="none"/>
<circle cx="1520.0" cy="460.0" r="2.0" stroke="#0000b2" stroke-width="4.0" fill="#0000b2" />
<circle cx="1540.0" cy="440.0" r="2.0" stroke="#0000b2" stroke-width="4.0" fill="#0000b2" />
<circle cx="1560.0" cy="460.0" r="2.0" stroke="#b20000" stroke-width="4.0" fill="#b20000" />
</g>
<g>
<path d="M 1521,128 L 1559,140 L 1521,152 Z" stroke="#808080" stroke-width="4.0" fill="none"/>
<circle cx="1520.0" cy="140.0" r="2.0" stroke="#0000b2" stroke-width="4.0" fill="#0000b2" />
<circle cx="1540.0" cy="160.0" r="2.0" stroke="#0000b2" stroke-width="4.0" fill="#0000b2" />
<circle cx="1560.0" cy="140.0" r="2.0" stroke="#b20000" stroke-width="4.0" fill="#b20000" />
</g>
<g>
<path d="M 1521,568 L 1559,580 L 1521,592 Z" stroke="#808080" stroke-width="4.0" fill="none"/>
<circle cx="1520.0" cy="580.0" r="2.0" stroke="#0000b2" stroke-width="4.0" fill="#0000b2" />
<circle cx="1540.0" cy="600.0" r="2.0" stroke="#0000b2" stroke-width="4.0" fill="#0000b2" />
<circle cx="1560.0" cy="580.0" r="2.0" stroke="#b20000" stroke-width="4.0" fill="#b20000" />
</g>
</g>
</svg>